<svg width="1224" height="713" viewBox="0 0 1224 713" fill="none" xmlns="http://www.w3.org/2000/svg">
<g clip-path="url(#clip0_190_57)">
<rect width="1224" height="713" rx="12" fill="#333331"/>
<rect y="326.796" width="1224" height="386.204" rx="23.4992" fill="url(#paint0_radial_190_57)"/>
<g opacity="0.02" clip-path="url(#clip1_190_57)">
<path d="M161.578 641.078V527.729H-122.594V443.116L144.815 74.3304H265.349V437.528H333.199V527.729H265.349V641.078H161.578ZM-9.2442 437.528H161.578V209.232L-9.2442 437.528ZM619.429 653.85C571.535 653.85 529.76 641.876 494.106 617.929C458.984 593.982 431.844 559.925 412.686 515.755C393.528 471.585 383.95 419.168 383.95 358.502C383.95 297.837 393.528 245.42 412.686 201.25C431.844 156.549 458.984 122.225 494.106 98.2775C529.76 73.7982 571.535 61.5586 619.429 61.5586C668.388 61.5586 710.428 73.7982 745.55 98.2775C780.673 122.225 807.813 156.283 826.971 200.452C846.128 244.621 855.707 297.305 855.707 358.502C855.707 419.168 846.128 471.585 826.971 515.755C807.813 559.925 780.673 593.982 745.55 617.929C710.428 641.876 668.388 653.85 619.429 653.85ZM619.429 563.649C660.938 563.649 692.867 546.355 715.218 511.764C737.568 476.641 748.743 425.554 748.743 358.502C748.743 313.801 743.687 276.018 733.577 245.153C723.466 214.288 708.832 191.139 689.674 175.706C671.048 159.742 647.634 151.759 619.429 151.759C592.289 151.759 569.14 159.742 549.983 175.706C530.825 191.139 516.19 214.288 506.08 245.153C495.969 276.018 490.913 313.801 490.913 358.502C490.913 425.554 502.088 476.641 524.439 511.764C546.79 546.355 578.453 563.649 619.429 563.649ZM1174.62 641.078V527.729H890.449V443.116L1157.86 74.3304H1278.39V437.528H1346.24V527.729H1278.39V641.078H1174.62ZM1003.8 437.528H1174.62V209.232L1003.8 437.528Z" fill="#F2F2F2"/>
</g>
<path opacity="0.25" d="M241.453 384V131.476H411.462V171.667H287.69V237.465H407.194V277.3H287.69V343.81H414.308V384H241.453ZM446.045 384V194.074H488.725L490.504 246.712L486.591 246.001C489.437 227.744 494.772 214.584 502.596 206.522C510.658 198.223 521.565 194.074 535.318 194.074H552.745V233.197H534.962C525.241 233.197 517.179 234.62 510.777 237.465C504.375 240.31 499.514 244.816 496.194 250.98C493.112 256.908 491.571 264.733 491.571 274.455V384H446.045ZM569.445 384V194.074H612.125L613.904 246.712L609.991 246.001C612.837 227.744 618.172 214.584 625.996 206.522C634.058 198.223 644.965 194.074 658.718 194.074H676.145V233.197H658.362C648.64 233.197 640.579 234.62 634.177 237.465C627.775 240.31 622.914 244.816 619.594 250.98C616.512 256.908 614.971 264.733 614.971 274.455V384H569.445ZM772.581 388.268C753.849 388.268 737.37 384.237 723.143 376.175C709.154 367.876 698.247 356.258 690.422 341.32C682.834 326.382 679.041 308.954 679.041 289.037C679.041 268.882 682.834 251.455 690.422 236.754C698.247 221.816 709.154 210.316 723.143 202.254C737.37 193.955 753.849 189.806 772.581 189.806C791.313 189.806 807.674 193.955 821.663 202.254C835.653 210.316 846.441 221.816 854.029 236.754C861.854 251.455 865.766 268.882 865.766 289.037C865.766 308.954 861.854 326.382 854.029 341.32C846.441 356.258 835.653 367.876 821.663 376.175C807.674 384.237 791.313 388.268 772.581 388.268ZM772.581 351.279C787.282 351.279 798.545 345.825 806.37 334.918C814.431 324.011 818.462 308.717 818.462 289.037C818.462 269.594 814.431 254.419 806.37 243.511C798.545 232.367 787.282 226.795 772.581 226.795C757.88 226.795 746.499 232.367 738.437 243.511C730.375 254.419 726.344 269.594 726.344 289.037C726.344 308.717 730.375 324.011 738.437 334.918C746.499 345.825 757.88 351.279 772.581 351.279ZM890.226 384V194.074H932.906L934.685 246.712L930.772 246.001C933.618 227.744 938.953 214.584 946.777 206.522C954.839 198.223 965.746 194.074 979.499 194.074H996.926V233.197H979.143C969.422 233.197 961.36 234.62 954.958 237.465C948.556 240.31 943.695 244.816 940.375 250.98C937.293 256.908 935.752 264.733 935.752 274.455V384H890.226Z" fill="#F2F2F2"/>
<g clip-path="url(#clip2_190_57)">
<path d="M417.471 557.431V508.58H295V472.114L410.247 313.176H462.194V469.706H491.436V508.58H462.194V557.431H417.471ZM343.851 469.706H417.471V371.316L343.851 469.706ZM614.794 562.935C594.153 562.935 576.149 557.775 560.783 547.455C545.646 537.134 533.949 522.456 525.693 503.42C517.436 484.384 513.308 461.793 513.308 435.648C513.308 409.502 517.436 386.912 525.693 367.876C533.949 348.61 545.646 333.817 560.783 323.497C576.149 312.947 594.153 307.672 614.794 307.672C635.895 307.672 654.013 312.947 669.15 323.497C684.287 333.817 695.983 348.496 704.24 367.532C712.496 386.568 716.625 409.273 716.625 435.648C716.625 461.793 712.496 484.384 704.24 503.42C695.983 522.456 684.287 537.134 669.15 547.455C654.013 557.775 635.895 562.935 614.794 562.935ZM614.794 524.061C632.683 524.061 646.444 516.608 656.077 501.7C665.709 486.563 670.526 464.545 670.526 435.648C670.526 416.383 668.347 400.099 663.989 386.797C659.632 373.495 653.325 363.518 645.068 356.867C637.041 349.986 626.95 346.546 614.794 346.546C603.098 346.546 593.121 349.986 584.865 356.867C576.608 363.518 570.301 373.495 565.943 386.797C561.586 400.099 559.407 416.383 559.407 435.648C559.407 464.545 564.223 486.563 573.856 501.7C583.488 516.608 597.134 524.061 614.794 524.061ZM854.069 557.431V508.58H731.598V472.114L846.845 313.176H898.792V469.706H928.034V508.58H898.792V557.431H854.069ZM780.449 469.706H854.069V371.316L780.449 469.706Z" fill="#F2F2F2"/>
</g>
</g>
<defs>
<radialGradient id="paint0_radial_190_57" cx="0" cy="0" r="1" gradientUnits="userSpaceOnUse" gradientTransform="translate(-1.16409e-06 713) scale(1224 386.204)">
<stop stop-color="#61F453" stop-opacity="0.2"/>
<stop offset="1" stop-color="#61F453" stop-opacity="0"/>
</radialGradient>
<clipPath id="clip0_190_57">
<rect width="1224" height="713" rx="12" fill="white"/>
</clipPath>
<clipPath id="clip1_190_57">
<rect width="1470.19" height="594" fill="white" transform="translate(-122.594 60)"/>
</clipPath>
<clipPath id="clip2_190_57">
<rect width="633.617" height="256" fill="white" transform="translate(295 307)"/>
</clipPath>
</defs>
</svg>
