<svg width="494" height="300" viewBox="0 0 494 300" fill="none" xmlns="http://www.w3.org/2000/svg">
<rect width="494" height="300" rx="12" fill="#40403F" fill-opacity="0.5"/>
<rect width="494" height="300" rx="12" fill="url(#paint0_radial_54_512)"/>
<g opacity="0.1">
<g clip-path="url(#clip0_54_512)">
<path d="M57.1053 184.029C54.1839 184.029 52.1082 182.492 50.8782 179.417C49.725 176.342 49.1484 171.421 49.1484 164.656C49.1484 154.662 50.5707 145.168 53.4151 136.173C54.107 133.944 55.2218 132.329 56.7593 131.33C58.3737 130.254 60.6032 129.715 63.4477 129.715C64.9852 129.715 66.0615 129.908 66.6765 130.292C67.2915 130.677 67.599 131.407 67.599 132.483C67.599 133.713 67.0225 136.481 65.8693 140.786C65.1005 143.861 64.4855 146.552 64.0242 148.858C63.563 151.088 63.1786 153.893 62.8711 157.276C64.9468 151.28 67.4069 146.206 70.2513 142.054C73.1727 137.903 76.1324 134.828 79.1307 132.829C82.2057 130.753 85.0886 129.715 87.7794 129.715C90.4702 129.715 92.3535 130.33 93.4299 131.561C94.583 132.79 95.1596 134.674 95.1596 137.211C95.1596 139.671 94.4292 144.13 92.9686 150.588C92.3535 153.355 91.9308 155.431 91.7001 156.815C95.5441 147.359 99.8108 140.478 104.5 136.173C109.19 131.868 113.572 129.715 117.646 129.715C122.643 129.715 125.142 132.214 125.142 137.211C125.142 140.209 124.296 145.629 122.605 153.471C121.144 160.159 120.414 164.58 120.414 166.732C120.414 169.807 121.529 171.345 123.758 171.345C125.296 171.345 127.102 170.422 129.178 168.577C131.33 166.655 134.175 163.58 137.711 159.352C138.634 158.275 139.672 157.737 140.825 157.737C141.824 157.737 142.593 158.199 143.131 159.121C143.746 160.044 144.054 161.312 144.054 162.927C144.054 166.002 143.323 168.385 141.863 170.076C138.557 174.151 134.982 177.495 131.138 180.109C127.371 182.722 123.066 184.029 118.223 184.029C114.302 184.029 111.342 182.915 109.344 180.685C107.345 178.379 106.345 175.073 106.345 170.768C106.345 168.616 106.883 164.772 107.96 159.236C108.959 154.393 109.459 151.049 109.459 149.204C109.459 147.974 109.036 147.359 108.19 147.359C107.191 147.359 105.769 148.666 103.924 151.28C102.079 153.817 100.234 157.199 98.3885 161.427C96.5434 165.656 95.0443 170.115 93.8912 174.804C93.0454 178.494 92.0461 180.954 90.8929 182.184C89.8165 183.414 88.0486 184.029 85.5884 184.029C83.0514 184.029 81.1296 182.838 79.8226 180.455C78.5925 177.994 77.9775 175.035 77.9775 171.575C77.9775 168.654 78.3619 164.426 79.1307 158.89C79.7458 153.97 80.0532 150.742 80.0532 149.204C80.0532 147.974 79.6305 147.359 78.7847 147.359C77.6316 147.359 76.1709 148.743 74.4027 151.51C72.6345 154.278 70.9048 157.814 69.2135 162.119C67.599 166.425 66.2921 170.653 65.2927 174.804C64.4471 178.417 63.4477 180.877 62.2945 182.184C61.2182 183.414 59.4885 184.029 57.1053 184.029ZM172.553 161.197C173.553 161.197 174.321 161.658 174.859 162.581C175.474 163.503 175.782 164.772 175.782 166.386C175.782 169.154 175.128 171.537 173.821 173.536C171.669 176.841 168.825 179.417 165.288 181.262C161.829 183.107 157.677 184.029 152.834 184.029C145.454 184.029 139.726 181.838 135.652 177.456C131.577 172.998 129.54 167.001 129.54 159.467C129.54 154.163 130.655 149.242 132.884 144.707C135.114 140.094 138.189 136.442 142.109 133.752C146.107 131.061 150.605 129.715 155.601 129.715C160.061 129.715 163.635 131.061 166.326 133.752C169.017 136.365 170.362 139.94 170.362 144.476C170.362 149.78 168.44 154.355 164.596 158.199C160.829 161.965 154.371 164.964 145.223 167.193C147.068 170.73 150.182 172.498 154.564 172.498C157.716 172.498 160.291 171.767 162.29 170.307C164.365 168.846 166.749 166.386 169.439 162.927C170.362 161.773 171.4 161.197 172.553 161.197ZM153.641 141.016C150.797 141.016 148.375 142.669 146.376 145.975C144.454 149.281 143.493 153.279 143.493 157.968V158.199C148.029 157.122 151.604 155.508 154.218 153.355C156.832 151.203 158.138 148.704 158.138 145.86C158.138 144.399 157.716 143.246 156.87 142.4C156.101 141.478 155.025 141.016 153.641 141.016Z" fill="#61F453"/>
<path d="M178.218 183.453V101.578H206.47C219.77 101.578 229.995 105.153 237.144 112.302C244.294 119.375 247.869 129.485 247.869 142.631C247.869 155.7 244.333 165.771 237.26 172.843C230.264 179.916 220.231 183.453 207.162 183.453H178.218ZM195.746 168.692H206.47C214.389 168.692 220.231 166.578 223.998 162.35C227.842 158.044 229.764 151.433 229.764 142.515C229.764 133.597 227.842 127.024 223.998 122.796C220.231 118.491 214.389 116.338 206.47 116.338H195.746V168.692ZM255.03 183.453V121.643H272.327V183.453H255.03ZM254.684 114.032V100.194H272.558V114.032H254.684ZM301.213 184.836C294.832 184.836 289.604 183.376 285.53 180.454C281.532 177.456 279.533 173.305 279.533 168C279.533 162.542 281.224 158.352 284.607 155.431C288.067 152.432 293.14 150.241 299.829 148.858L319.778 144.937C319.778 140.939 318.856 137.941 317.011 135.942C315.243 133.867 312.667 132.829 309.285 132.829C305.979 132.829 303.404 133.597 301.559 135.135C299.713 136.596 298.522 138.787 297.984 141.708L280.571 140.901C281.724 134.136 284.761 129.023 289.681 125.564C294.678 122.027 301.213 120.259 309.285 120.259C318.51 120.259 325.429 122.45 330.042 126.832C334.731 131.214 337.076 137.633 337.076 146.09V167.193C337.076 168.961 337.345 170.153 337.883 170.768C338.498 171.306 339.382 171.575 340.535 171.575H342.265V183.453C341.727 183.606 340.843 183.76 339.613 183.914C338.46 184.068 337.307 184.144 336.153 184.144C333.693 184.144 331.387 183.722 329.234 182.876C327.159 182.03 325.467 180.608 324.161 178.609C322.853 176.534 322.2 173.612 322.2 169.845L323.699 170.998C322.93 173.766 321.546 176.188 319.548 178.263C317.626 180.339 315.089 181.953 311.937 183.107C308.862 184.26 305.287 184.836 301.213 184.836ZM305.364 172.959C308.208 172.959 310.707 172.421 312.86 171.344C315.012 170.191 316.703 168.538 317.933 166.386C319.163 164.233 319.778 161.696 319.778 158.775V155.777L305.71 158.775C302.942 159.313 300.828 160.235 299.368 161.542C297.984 162.772 297.292 164.387 297.292 166.386C297.292 168.461 297.984 170.076 299.368 171.229C300.751 172.382 302.75 172.959 305.364 172.959ZM347.887 183.453V121.643H364.261L364.838 139.632L363.569 139.286C364.568 133.059 366.337 128.562 368.874 125.794C371.411 123.027 374.91 121.643 379.368 121.643H385.018V135.942H379.368C376.139 135.942 373.486 136.365 371.411 137.211C369.335 138.056 367.76 139.402 366.683 141.247C365.684 143.092 365.184 145.59 365.184 148.742V183.453H347.887ZM395.897 200.75V187.835H404.085C406.085 187.835 407.544 187.527 408.467 186.912C409.468 186.374 410.236 185.374 410.773 183.914L412.042 180.339H407.314L385.634 121.643H403.277L417.461 164.195L430.723 121.643H448.366L424.611 189.334C423.227 193.408 421.23 196.329 418.615 198.098C416.002 199.866 412.351 200.75 407.66 200.75H395.897Z" fill="#F2F2F2"/>
</g>
</g>
<path d="M129.884 63C131.053 63.0001 132 63.9475 132 65.1162V87.1514L134.056 101.132C134.133 101.663 133.548 102.048 133.023 101.812L115.632 94H68.1162C66.9475 93.9999 66.0001 93.0525 66 91.8838V65.1162C66.0001 63.9475 66.9475 63.0001 68.1162 63H129.884Z" fill="url(#paint1_linear_54_512)" fill-opacity="0.25"/>
<path d="M74.98 85.1V75.524H76.702L76.744 77.12L76.562 77.036C76.7487 76.4853 77.052 76.07 77.472 75.79C77.9013 75.5007 78.4007 75.356 78.97 75.356C79.6793 75.356 80.2673 75.5333 80.734 75.888C81.21 76.2427 81.5647 76.714 81.798 77.302C82.0313 77.89 82.148 78.5433 82.148 79.262C82.148 79.9807 82.0267 80.634 81.784 81.222C81.5507 81.81 81.196 82.2813 80.72 82.636C80.2533 82.9907 79.6653 83.168 78.956 83.168C78.5827 83.168 78.2327 83.1027 77.906 82.972C77.5887 82.8413 77.3133 82.6547 77.08 82.412C76.856 82.1693 76.6973 81.8847 76.604 81.558L76.772 81.418V85.1H74.98ZM78.536 81.712C79.0773 81.712 79.502 81.4973 79.81 81.068C80.1273 80.6293 80.286 80.0273 80.286 79.262C80.286 78.4967 80.1273 77.8993 79.81 77.47C79.502 77.0313 79.0773 76.812 78.536 76.812C78.172 76.812 77.8593 76.9053 77.598 77.092C77.3367 77.2693 77.1313 77.54 76.982 77.904C76.842 78.268 76.772 78.7207 76.772 79.262C76.772 79.8033 76.842 80.256 76.982 80.62C77.122 80.984 77.3227 81.2593 77.584 81.446C77.8547 81.6233 78.172 81.712 78.536 81.712ZM85.398 83.168C84.614 83.168 83.984 82.9907 83.508 82.636C83.032 82.272 82.794 81.768 82.794 81.124C82.794 80.48 82.9946 79.976 83.396 79.612C83.7973 79.248 84.4086 78.9867 85.23 78.828L87.708 78.338C87.708 77.806 87.5866 77.4093 87.344 77.148C87.1013 76.8773 86.742 76.742 86.266 76.742C85.8366 76.742 85.496 76.8447 85.244 77.05C85.0013 77.246 84.8333 77.5307 84.74 77.904L82.92 77.82C83.0693 77.0267 83.4333 76.42 84.012 76C84.5906 75.5707 85.342 75.356 86.266 75.356C87.33 75.356 88.1326 75.6267 88.674 76.168C89.2246 76.7 89.5 77.4653 89.5 78.464V81.18C89.5 81.376 89.5326 81.5113 89.598 81.586C89.6726 81.6607 89.78 81.698 89.92 81.698H90.158V83C90.102 83.0187 90.0086 83.0327 89.878 83.042C89.7566 83.0513 89.6306 83.056 89.5 83.056C89.192 83.056 88.9166 83.0093 88.674 82.916C88.4313 82.8133 88.2446 82.6407 88.114 82.398C87.9833 82.146 87.918 81.8053 87.918 81.376L88.072 81.488C87.9973 81.8147 87.834 82.1087 87.582 82.37C87.3393 82.622 87.0313 82.818 86.658 82.958C86.2846 83.098 85.8646 83.168 85.398 83.168ZM85.762 81.866C86.1633 81.866 86.5086 81.7867 86.798 81.628C87.0873 81.4693 87.3113 81.25 87.47 80.97C87.6286 80.69 87.708 80.3587 87.708 79.976V79.556L85.776 79.948C85.3746 80.032 85.0853 80.158 84.908 80.326C84.74 80.4847 84.656 80.6947 84.656 80.956C84.656 81.2453 84.7493 81.4693 84.936 81.628C85.132 81.7867 85.4073 81.866 85.762 81.866ZM93.8577 83.168C93.1204 83.168 92.4997 83.0607 91.9957 82.846C91.501 82.6313 91.1184 82.3327 90.8477 81.95C90.577 81.5673 90.423 81.1333 90.3857 80.648L92.2197 80.564C92.285 80.956 92.4484 81.2593 92.7097 81.474C92.971 81.6887 93.3584 81.796 93.8717 81.796C94.2917 81.796 94.6184 81.7307 94.8517 81.6C95.0944 81.46 95.2157 81.2453 95.2157 80.956C95.2157 80.788 95.1737 80.648 95.0897 80.536C95.0057 80.424 94.847 80.326 94.6137 80.242C94.3804 80.158 94.035 80.074 93.5777 79.99C92.8124 79.8593 92.2104 79.7007 91.7717 79.514C91.333 79.318 91.0204 79.0753 90.8337 78.786C90.6564 78.4967 90.5677 78.1373 90.5677 77.708C90.5677 77.008 90.8337 76.4433 91.3657 76.014C91.907 75.5753 92.6957 75.356 93.7317 75.356C94.4037 75.356 94.9684 75.468 95.4257 75.692C95.883 75.9067 96.2377 76.2053 96.4897 76.588C96.751 76.9613 96.9144 77.3907 96.9797 77.876L95.1737 77.96C95.127 77.708 95.043 77.4887 94.9217 77.302C94.8004 77.1153 94.637 76.9753 94.4317 76.882C94.2264 76.7793 93.9837 76.728 93.7037 76.728C93.2837 76.728 92.9664 76.812 92.7517 76.98C92.537 77.148 92.4297 77.372 92.4297 77.652C92.4297 77.848 92.4764 78.0113 92.5697 78.142C92.6724 78.2727 92.8357 78.38 93.0597 78.464C93.2837 78.5387 93.5824 78.6087 93.9557 78.674C94.7397 78.7953 95.3557 78.954 95.8037 79.15C96.261 79.3367 96.583 79.5793 96.7697 79.878C96.9657 80.1673 97.0637 80.5173 97.0637 80.928C97.0637 81.404 96.9284 81.81 96.6577 82.146C96.3964 82.482 96.023 82.7387 95.5377 82.916C95.0617 83.084 94.5017 83.168 93.8577 83.168ZM101.08 83.168C100.343 83.168 99.7223 83.0607 99.2183 82.846C98.7236 82.6313 98.3409 82.3327 98.0703 81.95C97.7996 81.5673 97.6456 81.1333 97.6083 80.648L99.4423 80.564C99.5076 80.956 99.6709 81.2593 99.9323 81.474C100.194 81.6887 100.581 81.796 101.094 81.796C101.514 81.796 101.841 81.7307 102.074 81.6C102.317 81.46 102.438 81.2453 102.438 80.956C102.438 80.788 102.396 80.648 102.312 80.536C102.228 80.424 102.07 80.326 101.836 80.242C101.603 80.158 101.258 80.074 100.8 79.99C100.035 79.8593 99.4329 79.7007 98.9943 79.514C98.5556 79.318 98.2429 79.0753 98.0563 78.786C97.8789 78.4967 97.7903 78.1373 97.7903 77.708C97.7903 77.008 98.0563 76.4433 98.5883 76.014C99.1296 75.5753 99.9183 75.356 100.954 75.356C101.626 75.356 102.191 75.468 102.648 75.692C103.106 75.9067 103.46 76.2053 103.712 76.588C103.974 76.9613 104.137 77.3907 104.202 77.876L102.396 77.96C102.35 77.708 102.266 77.4887 102.144 77.302C102.023 77.1153 101.86 76.9753 101.654 76.882C101.449 76.7793 101.206 76.728 100.926 76.728C100.506 76.728 100.189 76.812 99.9743 76.98C99.7596 77.148 99.6523 77.372 99.6523 77.652C99.6523 77.848 99.6989 78.0113 99.7923 78.142C99.8949 78.2727 100.058 78.38 100.282 78.464C100.506 78.5387 100.805 78.6087 101.178 78.674C101.962 78.7953 102.578 78.954 103.026 79.15C103.484 79.3367 103.806 79.5793 103.992 79.878C104.188 80.1673 104.286 80.5173 104.286 80.928C104.286 81.404 104.151 81.81 103.88 82.146C103.619 82.482 103.246 82.7387 102.76 82.916C102.284 83.084 101.724 83.168 101.08 83.168ZM105.265 83V75.524H107.057V83H105.265ZM105.237 74.53V72.934H107.099V74.53H105.237ZM111.716 83.168C110.979 83.168 110.33 83.0093 109.77 82.692C109.219 82.3653 108.79 81.908 108.482 81.32C108.183 80.732 108.034 80.046 108.034 79.262C108.034 78.4687 108.183 77.7827 108.482 77.204C108.79 76.616 109.219 76.1633 109.77 75.846C110.33 75.5193 110.979 75.356 111.716 75.356C112.453 75.356 113.097 75.5193 113.648 75.846C114.199 76.1633 114.623 76.616 114.922 77.204C115.23 77.7827 115.384 78.4687 115.384 79.262C115.384 80.046 115.23 80.732 114.922 81.32C114.623 81.908 114.199 82.3653 113.648 82.692C113.097 83.0093 112.453 83.168 111.716 83.168ZM111.716 81.712C112.295 81.712 112.738 81.4973 113.046 81.068C113.363 80.6387 113.522 80.0367 113.522 79.262C113.522 78.4967 113.363 77.8993 113.046 77.47C112.738 77.0313 112.295 76.812 111.716 76.812C111.137 76.812 110.689 77.0313 110.372 77.47C110.055 77.8993 109.896 78.4967 109.896 79.262C109.896 80.0367 110.055 80.6387 110.372 81.068C110.689 81.4973 111.137 81.712 111.716 81.712ZM116.347 83V75.524H117.971L118.041 77.624L117.831 77.54C117.905 77.0173 118.059 76.5973 118.293 76.28C118.526 75.9627 118.811 75.7293 119.147 75.58C119.483 75.4307 119.851 75.356 120.253 75.356C120.803 75.356 121.265 75.4773 121.639 75.72C122.021 75.9627 122.311 76.2987 122.507 76.728C122.703 77.148 122.801 77.638 122.801 78.198V83H121.009V78.772C121.009 78.352 120.967 77.9973 120.883 77.708C120.799 77.4187 120.659 77.1993 120.463 77.05C120.276 76.8913 120.024 76.812 119.707 76.812C119.231 76.812 118.848 76.98 118.559 77.316C118.279 77.652 118.139 78.1373 118.139 78.772V83H116.347Z" fill="#F2F2F2"/>
<path d="M334.179 59C333.01 59.0001 332.063 59.9475 332.062 61.1162V83.1514L330.007 97.1318C329.929 97.6627 330.514 98.0483 331.039 97.8125L348.431 90H395.946C397.115 89.9999 398.062 89.0525 398.062 87.8838V61.1162C398.062 59.9475 397.115 59.0001 395.946 59H334.179Z" fill="url(#paint2_linear_54_512)" fill-opacity="0.25"/>
<path d="M347.172 81.268C346.519 81.268 345.959 81.1793 345.492 81.002C345.025 80.8247 344.647 80.5727 344.358 80.246C344.078 79.9287 343.882 79.56 343.77 79.14L345.618 79.014C345.711 79.294 345.87 79.5133 346.094 79.672C346.327 79.8307 346.687 79.91 347.172 79.91C347.723 79.91 348.147 79.784 348.446 79.532C348.745 79.2893 348.894 78.9067 348.894 78.384V77.432C348.717 77.796 348.432 78.09 348.04 78.314C347.648 78.5287 347.209 78.636 346.724 78.636C346.108 78.636 345.557 78.4867 345.072 78.188C344.596 77.88 344.223 77.4553 343.952 76.914C343.681 76.3633 343.546 75.7287 343.546 75.01C343.546 74.2913 343.677 73.6613 343.938 73.12C344.209 72.5693 344.582 72.14 345.058 71.832C345.534 71.5147 346.08 71.356 346.696 71.356C347.237 71.356 347.704 71.4773 348.096 71.72C348.488 71.9627 348.773 72.2847 348.95 72.686V71.524H350.7V78.342C350.7 78.9767 350.551 79.5133 350.252 79.952C349.963 80.3907 349.552 80.7173 349.02 80.932C348.497 81.156 347.881 81.268 347.172 81.268ZM347.144 77.236C347.676 77.236 348.101 77.04 348.418 76.648C348.735 76.2467 348.899 75.696 348.908 74.996C348.917 74.5293 348.847 74.1327 348.698 73.806C348.558 73.47 348.353 73.2133 348.082 73.036C347.821 72.8493 347.508 72.756 347.144 72.756C346.593 72.756 346.164 72.9613 345.856 73.372C345.557 73.7733 345.408 74.3147 345.408 74.996C345.408 75.6773 345.562 76.2233 345.87 76.634C346.187 77.0353 346.612 77.236 347.144 77.236ZM352.242 79V71.524H353.922L353.992 73.596L353.838 73.568C353.95 72.8493 354.16 72.3313 354.468 72.014C354.785 71.6873 355.214 71.524 355.756 71.524H356.442V73.064H355.742C355.359 73.064 355.042 73.12 354.79 73.232C354.538 73.344 354.346 73.5213 354.216 73.764C354.094 73.9973 354.034 74.3053 354.034 74.688V79H352.242ZM360.238 79.168C359.5 79.168 358.852 79.0093 358.292 78.692C357.741 78.3653 357.312 77.908 357.004 77.32C356.705 76.732 356.556 76.046 356.556 75.262C356.556 74.4687 356.705 73.7827 357.004 73.204C357.312 72.616 357.741 72.1633 358.292 71.846C358.852 71.5193 359.5 71.356 360.238 71.356C360.975 71.356 361.619 71.5193 362.17 71.846C362.72 72.1633 363.145 72.616 363.444 73.204C363.752 73.7827 363.906 74.4687 363.906 75.262C363.906 76.046 363.752 76.732 363.444 77.32C363.145 77.908 362.72 78.3653 362.17 78.692C361.619 79.0093 360.975 79.168 360.238 79.168ZM360.238 77.712C360.816 77.712 361.26 77.4973 361.568 77.068C361.885 76.6387 362.044 76.0367 362.044 75.262C362.044 74.4967 361.885 73.8993 361.568 73.47C361.26 73.0313 360.816 72.812 360.238 72.812C359.659 72.812 359.211 73.0313 358.894 73.47C358.576 73.8993 358.418 74.4967 358.418 75.262C358.418 76.0367 358.576 76.6387 358.894 77.068C359.211 77.4973 359.659 77.712 360.238 77.712ZM366.177 79L363.923 71.524H365.757L367.213 76.97L368.711 71.524H370.279L371.791 76.97L373.247 71.524H375.081L372.827 79H370.979L369.495 73.988L368.025 79H366.177ZM378.614 79C377.868 79 377.317 78.8273 376.962 78.482C376.617 78.1367 376.444 77.5953 376.444 76.858V69.774H378.236V76.69C378.236 77.0353 378.311 77.278 378.46 77.418C378.61 77.5487 378.843 77.614 379.16 77.614H380.21V79H378.614ZM375.268 72.91V71.524H380.21V72.91H375.268ZM381.105 79V69.06H382.897V73.232H382.673C382.747 72.8027 382.897 72.4527 383.121 72.182C383.345 71.902 383.62 71.6967 383.947 71.566C384.273 71.426 384.633 71.356 385.025 71.356C385.575 71.356 386.037 71.4773 386.411 71.72C386.793 71.9533 387.078 72.2847 387.265 72.714C387.461 73.1433 387.559 73.638 387.559 74.198V79H385.767V74.632C385.767 74.0253 385.664 73.5727 385.459 73.274C385.253 72.966 384.931 72.812 384.493 72.812C384.007 72.812 383.62 72.9707 383.331 73.288C383.041 73.6053 382.897 74.0673 382.897 74.674V79H381.105Z" fill="#F2F2F2"/>
<g clip-path="url(#clip1_54_512)">
<path d="M239 158.167C248.062 158.167 256.752 161.766 263.16 168.174C269.567 174.581 273.167 183.272 273.167 192.333V233.333H204.834V192.333C204.834 183.272 208.433 174.581 214.841 168.174C221.248 161.766 229.939 158.167 239 158.167ZM193.135 178.708C192.048 182.376 191.405 186.161 191.222 189.983L191.167 192.333V233.333H170.667V202.583C170.666 196.69 172.84 191.004 176.773 186.615C180.707 182.227 186.122 179.445 191.98 178.803L193.135 178.708ZM284.866 178.708C290.947 179.078 296.657 181.755 300.832 186.192C305.008 190.628 307.333 196.491 307.334 202.583V233.333H286.834V192.333C286.834 187.598 286.15 183.026 284.866 178.708ZM194.584 137.667C199.114 137.667 203.46 139.466 206.663 142.67C209.867 145.874 211.667 150.219 211.667 154.75C211.667 159.281 209.867 163.626 206.663 166.83C203.46 170.033 199.114 171.833 194.584 171.833C190.053 171.833 185.708 170.033 182.504 166.83C179.3 163.626 177.5 159.281 177.5 154.75C177.5 150.219 179.3 145.874 182.504 142.67C185.708 139.466 190.053 137.667 194.584 137.667ZM283.417 137.667C287.948 137.667 292.293 139.466 295.497 142.67C298.7 145.874 300.5 150.219 300.5 154.75C300.5 159.281 298.7 163.626 295.497 166.83C292.293 170.033 287.948 171.833 283.417 171.833C278.886 171.833 274.541 170.033 271.337 166.83C268.134 163.626 266.334 159.281 266.334 154.75C266.334 150.219 268.134 145.874 271.337 142.67C274.541 139.466 278.886 137.667 283.417 137.667ZM239 96.6666C246.25 96.6666 253.202 99.5464 258.328 104.672C263.454 109.798 266.334 116.751 266.334 124C266.334 131.249 263.454 138.202 258.328 143.328C253.202 148.454 246.25 151.333 239 151.333C231.751 151.333 224.799 148.454 219.673 143.328C214.547 138.202 211.667 131.249 211.667 124C211.667 116.751 214.547 109.798 219.673 104.672C224.799 99.5464 231.751 96.6666 239 96.6666Z" fill="#F2F2F2"/>
</g>
<path d="M182.115 23C180.947 23.0002 179.999 23.9476 179.999 25.1162V52.6807C179.999 53.8493 180.947 54.7967 182.115 54.7969H240.696L249.697 69.4229C249.998 69.9112 250.701 69.9113 250.936 69.4229L257.95 54.7969H282.861C284.03 54.7968 284.978 53.8494 284.978 52.6807V25.1162C284.977 23.9475 284.03 23.0001 282.861 23H182.115Z" fill="url(#paint3_linear_54_512)" fill-opacity="0.25"/>
<path d="M189.055 43.2057V35.7297H190.679L190.735 37.5637L190.567 37.4797C190.651 37.0784 190.796 36.7377 191.001 36.4577C191.216 36.1684 191.473 35.949 191.771 35.7997C192.079 35.641 192.415 35.5617 192.779 35.5617C193.414 35.5617 193.927 35.7437 194.319 36.1077C194.711 36.4624 194.959 36.9524 195.061 37.5777H194.823C194.907 37.139 195.052 36.775 195.257 36.4857C195.463 36.187 195.719 35.9584 196.027 35.7997C196.345 35.641 196.699 35.5617 197.091 35.5617C197.605 35.5617 198.048 35.6737 198.421 35.8977C198.795 36.1124 199.079 36.4297 199.275 36.8497C199.481 37.2697 199.583 37.7877 199.583 38.4037V43.2057H197.791V38.8657C197.791 38.2497 197.684 37.7877 197.469 37.4797C197.264 37.1717 196.947 37.0177 196.517 37.0177C196.228 37.0177 195.981 37.0924 195.775 37.2417C195.57 37.391 195.411 37.6104 195.299 37.8997C195.197 38.1797 195.145 38.5204 195.145 38.9217V43.2057H193.479V38.9217C193.479 38.3057 193.386 37.8344 193.199 37.5077C193.013 37.181 192.691 37.0177 192.233 37.0177C191.944 37.0177 191.697 37.0924 191.491 37.2417C191.295 37.391 191.137 37.6104 191.015 37.8997C190.903 38.1797 190.847 38.5204 190.847 38.9217V43.2057H189.055ZM204.174 43.3737C203.427 43.3737 202.779 43.215 202.228 42.8977C201.677 42.571 201.253 42.1137 200.954 41.5257C200.655 40.9377 200.506 40.2517 200.506 39.4677C200.506 38.6837 200.655 38.0024 200.954 37.4237C201.253 36.8357 201.673 36.3784 202.214 36.0517C202.765 35.725 203.404 35.5617 204.132 35.5617C204.841 35.5617 205.462 35.7204 205.994 36.0377C206.535 36.355 206.951 36.8124 207.24 37.4097C207.529 38.007 207.674 38.7257 207.674 39.5657V39.9717H202.368C202.405 40.625 202.583 41.1197 202.9 41.4557C203.227 41.7824 203.656 41.9457 204.188 41.9457C204.589 41.9457 204.921 41.857 205.182 41.6797C205.453 41.493 205.639 41.2364 205.742 40.9097L207.576 41.0217C207.371 41.7497 206.965 42.3237 206.358 42.7437C205.761 43.1637 205.033 43.3737 204.174 43.3737ZM202.368 38.7677H205.826C205.789 38.161 205.616 37.713 205.308 37.4237C205 37.125 204.608 36.9757 204.132 36.9757C203.656 36.9757 203.259 37.1297 202.942 37.4377C202.634 37.7457 202.443 38.189 202.368 38.7677ZM208.655 43.2057V35.7297H210.279L210.349 37.8297L210.139 37.7457C210.213 37.223 210.367 36.803 210.601 36.4857C210.834 36.1684 211.119 35.935 211.455 35.7857C211.791 35.6364 212.159 35.5617 212.561 35.5617C213.111 35.5617 213.573 35.683 213.947 35.9257C214.329 36.1684 214.619 36.5044 214.815 36.9337C215.011 37.3537 215.109 37.8437 215.109 38.4037V43.2057H213.317V38.9777C213.317 38.5577 213.275 38.203 213.191 37.9137C213.107 37.6244 212.967 37.405 212.771 37.2557C212.584 37.097 212.332 37.0177 212.015 37.0177C211.539 37.0177 211.156 37.1857 210.867 37.5217C210.587 37.8577 210.447 38.343 210.447 38.9777V43.2057H208.655ZM219.119 43.2057C218.373 43.2057 217.822 43.033 217.467 42.6877C217.122 42.3424 216.949 41.801 216.949 41.0637V33.9797H218.741V40.8957C218.741 41.241 218.816 41.4837 218.965 41.6237C219.115 41.7544 219.348 41.8197 219.665 41.8197H220.715V43.2057H219.119ZM215.773 37.1157V35.7297H220.715V37.1157H215.773ZM223.739 43.3737C222.955 43.3737 222.325 43.1964 221.849 42.8417C221.373 42.4777 221.135 41.9737 221.135 41.3297C221.135 40.6857 221.335 40.1817 221.737 39.8177C222.138 39.4537 222.749 39.1924 223.571 39.0337L226.049 38.5437C226.049 38.0117 225.927 37.615 225.685 37.3537C225.442 37.083 225.083 36.9477 224.607 36.9477C224.177 36.9477 223.837 37.0504 223.585 37.2557C223.342 37.4517 223.174 37.7364 223.081 38.1097L221.261 38.0257C221.41 37.2324 221.774 36.6257 222.353 36.2057C222.931 35.7764 223.683 35.5617 224.607 35.5617C225.671 35.5617 226.473 35.8324 227.015 36.3737C227.565 36.9057 227.841 37.671 227.841 38.6697V41.3857C227.841 41.5817 227.873 41.717 227.939 41.7917C228.013 41.8664 228.121 41.9037 228.261 41.9037H228.499V43.2057C228.443 43.2244 228.349 43.2384 228.219 43.2477C228.097 43.257 227.971 43.2617 227.841 43.2617C227.533 43.2617 227.257 43.215 227.015 43.1217C226.772 43.019 226.585 42.8464 226.455 42.6037C226.324 42.3517 226.259 42.011 226.259 41.5817L226.413 41.6937C226.338 42.0204 226.175 42.3144 225.923 42.5757C225.68 42.8277 225.372 43.0237 224.999 43.1637C224.625 43.3037 224.205 43.3737 223.739 43.3737ZM224.103 42.0717C224.504 42.0717 224.849 41.9924 225.139 41.8337C225.428 41.675 225.652 41.4557 225.811 41.1757C225.969 40.8957 226.049 40.5644 226.049 40.1817V39.7617L224.117 40.1537C223.715 40.2377 223.426 40.3637 223.249 40.5317C223.081 40.6904 222.997 40.9004 222.997 41.1617C222.997 41.451 223.09 41.675 223.277 41.8337C223.473 41.9924 223.748 42.0717 224.103 42.0717ZM230.925 43.2057C230.384 43.2057 229.95 43.0657 229.623 42.7857C229.296 42.5057 229.133 42.0577 229.133 41.4417V33.2657H230.925V41.2597C230.925 41.4464 230.972 41.5864 231.065 41.6797C231.168 41.773 231.308 41.8197 231.485 41.8197H232.031V43.2057H230.925ZM235.758 43.2057V33.2657H237.55V37.4377H237.326C237.4 37.0084 237.55 36.6584 237.774 36.3877C237.998 36.1077 238.273 35.9024 238.6 35.7717C238.926 35.6317 239.286 35.5617 239.678 35.5617C240.228 35.5617 240.69 35.683 241.064 35.9257C241.446 36.159 241.731 36.4904 241.918 36.9197C242.114 37.349 242.212 37.8437 242.212 38.4037V43.2057H240.42V38.8377C240.42 38.231 240.317 37.7784 240.112 37.4797C239.906 37.1717 239.584 37.0177 239.146 37.0177C238.66 37.0177 238.273 37.1764 237.984 37.4937C237.694 37.811 237.55 38.273 237.55 38.8797V43.2057H235.758ZM246.802 43.3737C246.056 43.3737 245.407 43.215 244.856 42.8977C244.306 42.571 243.881 42.1137 243.582 41.5257C243.284 40.9377 243.134 40.2517 243.134 39.4677C243.134 38.6837 243.284 38.0024 243.582 37.4237C243.881 36.8357 244.301 36.3784 244.842 36.0517C245.393 35.725 246.032 35.5617 246.76 35.5617C247.47 35.5617 248.09 35.7204 248.622 36.0377C249.164 36.355 249.579 36.8124 249.868 37.4097C250.158 38.007 250.302 38.7257 250.302 39.5657V39.9717H244.996C245.034 40.625 245.211 41.1197 245.528 41.4557C245.855 41.7824 246.284 41.9457 246.816 41.9457C247.218 41.9457 247.549 41.857 247.81 41.6797C248.081 41.493 248.268 41.2364 248.37 40.9097L250.204 41.0217C249.999 41.7497 249.593 42.3237 248.986 42.7437C248.389 43.1637 247.661 43.3737 246.802 43.3737ZM244.996 38.7677H248.454C248.417 38.161 248.244 37.713 247.936 37.4237C247.628 37.125 247.236 36.9757 246.76 36.9757C246.284 36.9757 245.888 37.1297 245.57 37.4377C245.262 37.7457 245.071 38.189 244.996 38.7677ZM253.562 43.3737C252.778 43.3737 252.148 43.1964 251.672 42.8417C251.196 42.4777 250.958 41.9737 250.958 41.3297C250.958 40.6857 251.159 40.1817 251.56 39.8177C251.962 39.4537 252.573 39.1924 253.394 39.0337L255.872 38.5437C255.872 38.0117 255.751 37.615 255.508 37.3537C255.266 37.083 254.906 36.9477 254.43 36.9477C254.001 36.9477 253.66 37.0504 253.408 37.2557C253.166 37.4517 252.998 37.7364 252.904 38.1097L251.084 38.0257C251.234 37.2324 251.598 36.6257 252.176 36.2057C252.755 35.7764 253.506 35.5617 254.43 35.5617C255.494 35.5617 256.297 35.8324 256.838 36.3737C257.389 36.9057 257.664 37.671 257.664 38.6697V41.3857C257.664 41.5817 257.697 41.717 257.762 41.7917C257.837 41.8664 257.944 41.9037 258.084 41.9037H258.322V43.2057C258.266 43.2244 258.173 43.2384 258.042 43.2477C257.921 43.257 257.795 43.2617 257.664 43.2617C257.356 43.2617 257.081 43.215 256.838 43.1217C256.596 43.019 256.409 42.8464 256.278 42.6037C256.148 42.3517 256.082 42.011 256.082 41.5817L256.236 41.6937C256.162 42.0204 255.998 42.3144 255.746 42.5757C255.504 42.8277 255.196 43.0237 254.822 43.1637C254.449 43.3037 254.029 43.3737 253.562 43.3737ZM253.926 42.0717C254.328 42.0717 254.673 41.9924 254.962 41.8337C255.252 41.675 255.476 41.4557 255.634 41.1757C255.793 40.8957 255.872 40.5644 255.872 40.1817V39.7617L253.94 40.1537C253.539 40.2377 253.25 40.3637 253.072 40.5317C252.904 40.6904 252.82 40.9004 252.82 41.1617C252.82 41.451 252.914 41.675 253.1 41.8337C253.296 41.9924 253.572 42.0717 253.926 42.0717ZM260.749 43.2057C260.207 43.2057 259.773 43.0657 259.447 42.7857C259.12 42.5057 258.957 42.0577 258.957 41.4417V33.2657H260.749V41.2597C260.749 41.4464 260.795 41.5864 260.889 41.6797C260.991 41.773 261.131 41.8197 261.309 41.8197H261.855V43.2057H260.749ZM265.279 43.2057C264.532 43.2057 263.982 43.033 263.627 42.6877C263.282 42.3424 263.109 41.801 263.109 41.0637V33.9797H264.901V40.8957C264.901 41.241 264.976 41.4837 265.125 41.6237C265.274 41.7544 265.508 41.8197 265.825 41.8197H266.875V43.2057H265.279ZM261.933 37.1157V35.7297H266.875V37.1157H261.933ZM267.769 43.2057V33.2657H269.561V37.4377H269.337C269.412 37.0084 269.561 36.6584 269.785 36.3877C270.009 36.1077 270.284 35.9024 270.611 35.7717C270.938 35.6317 271.297 35.5617 271.689 35.5617C272.24 35.5617 272.702 35.683 273.075 35.9257C273.458 36.159 273.742 36.4904 273.929 36.9197C274.125 37.349 274.223 37.8437 274.223 38.4037V43.2057H272.431V38.8377C272.431 38.231 272.328 37.7784 272.123 37.4797C271.918 37.1717 271.596 37.0177 271.157 37.0177C270.672 37.0177 270.284 37.1764 269.995 37.4937C269.706 37.811 269.561 38.273 269.561 38.8797V43.2057H267.769Z" fill="#F2F2F2"/>
<defs>
<radialGradient id="paint0_radial_54_512" cx="0" cy="0" r="1" gradientUnits="userSpaceOnUse" gradientTransform="translate(247 150) rotate(90) scale(150 247)">
<stop stop-color="#61F453" stop-opacity="0.1"/>
<stop offset="1" stop-color="#61F453" stop-opacity="0"/>
</radialGradient>
<linearGradient id="paint1_linear_54_512" x1="100.11" y1="127.385" x2="100.11" y2="63" gradientUnits="userSpaceOnUse">
<stop stop-color="#61F453"/>
<stop offset="1" stop-color="#388E30"/>
</linearGradient>
<linearGradient id="paint2_linear_54_512" x1="363.953" y1="123.385" x2="363.953" y2="59" gradientUnits="userSpaceOnUse">
<stop stop-color="#61F453"/>
<stop offset="1" stop-color="#388E30"/>
</linearGradient>
<linearGradient id="paint3_linear_54_512" x1="229.125" y1="89.0508" x2="229.125" y2="23" gradientUnits="userSpaceOnUse">
<stop stop-color="#61F453"/>
<stop offset="1" stop-color="#388E30"/>
</linearGradient>
<clipPath id="clip0_54_512">
<rect width="399.358" height="100.75" fill="white" transform="translate(49.1484 100)"/>
</clipPath>
<clipPath id="clip1_54_512">
<rect width="164" height="164" fill="white" transform="translate(157 83)"/>
</clipPath>
</defs>
</svg>
