<svg width="1224" height="310" viewBox="0 0 1224 310" fill="none" xmlns="http://www.w3.org/2000/svg">
<g opacity="0.5" clip-path="url(#clip0_7_66)">
<g clip-path="url(#clip1_7_66)">
<path d="M-5.64053 278.373C-15.3184 278.373 -22.1948 273.279 -26.2697 263.092C-30.0899 252.905 -32 236.605 -32 214.194C-32 181.085 -27.2884 149.632 -17.8652 119.834C-15.5731 112.448 -11.8802 107.1 -6.7866 103.789C-1.4383 100.224 5.94748 98.4412 15.3706 98.4412C20.4643 98.4412 24.0298 99.0778 26.0672 100.351C28.1047 101.625 29.1234 104.044 29.1234 107.61C29.1234 111.684 27.2133 120.853 23.3931 135.115C20.8463 145.302 18.8088 154.216 17.2807 161.857C15.7527 169.243 14.4792 178.538 13.4605 189.744C20.3369 169.879 28.4867 153.07 37.9099 139.317C47.5878 125.565 57.393 115.378 67.3255 108.756C77.5124 101.879 87.063 98.4412 95.9771 98.4412C104.891 98.4412 111.13 100.479 114.696 104.554C118.516 108.628 120.426 114.868 120.426 123.273C120.426 131.423 118.007 146.194 113.168 167.587C111.13 176.756 109.73 183.632 108.966 188.216C121.7 156.89 135.835 134.097 151.37 119.834C166.905 105.572 181.422 98.4412 194.921 98.4412C211.475 98.4412 219.752 106.718 219.752 123.273C219.752 133.205 216.95 151.16 211.348 177.138C206.509 199.295 204.089 213.939 204.089 221.07C204.089 231.257 207.782 236.351 215.168 236.351C220.262 236.351 226.246 233.295 233.123 227.182C240.253 220.816 249.677 210.628 261.392 196.621C264.448 193.055 267.887 191.272 271.707 191.272C275.017 191.272 277.565 192.8 279.347 195.857C281.385 198.913 282.404 203.115 282.404 208.463C282.404 218.65 279.984 226.546 275.145 232.149C264.194 245.647 252.352 256.726 239.617 265.384C227.138 274.043 212.876 278.373 196.831 278.373C183.842 278.373 174.037 274.681 167.415 267.295C160.793 259.654 157.483 248.703 157.483 234.441C157.483 227.31 159.265 214.576 162.831 196.239C166.141 180.194 167.797 169.115 167.797 163.003C167.797 158.928 166.397 156.89 163.595 156.89C160.284 156.89 155.572 161.22 149.46 169.879C143.348 178.284 137.235 189.49 131.123 203.497C125.011 217.504 120.044 232.276 116.224 247.811C113.422 260.036 110.112 268.186 106.292 272.261C102.726 276.335 96.8689 278.373 88.7187 278.373C80.3143 278.373 73.9476 274.425 69.6177 266.531C65.5428 258.38 63.5053 248.576 63.5053 237.115C63.5053 227.437 64.7788 213.43 67.3255 195.093C69.3633 178.793 70.3817 168.097 70.3817 163.003C70.3817 158.928 68.9813 156.89 66.1795 156.89C62.3593 156.89 57.5203 161.475 51.6627 170.643C45.805 179.812 40.0746 191.527 34.4717 205.789C29.1234 220.052 24.7938 234.059 21.483 247.811C18.6815 259.782 15.3706 267.931 11.5504 272.261C7.98486 276.335 2.25454 278.373 -5.64053 278.373ZM376.816 202.733C380.128 202.733 382.674 204.261 384.456 207.317C386.494 210.373 387.513 214.576 387.513 219.924C387.513 229.092 385.348 236.987 381.018 243.609C373.888 254.56 364.465 263.092 352.749 269.205C341.288 275.317 327.535 278.373 311.49 278.373C287.041 278.373 268.068 271.115 254.569 256.598C241.072 241.827 234.322 221.962 234.322 197.003C234.322 179.43 238.016 163.13 245.401 148.104C252.787 132.823 262.974 120.726 275.962 111.812C289.207 102.898 304.105 98.4412 320.659 98.4412C335.431 98.4412 347.274 102.898 356.187 111.812C365.101 120.471 369.558 132.313 369.558 147.34C369.558 164.913 363.191 180.066 350.457 192.8C337.978 205.279 316.584 215.212 286.277 222.598C292.389 234.313 302.704 240.171 317.221 240.171C327.663 240.171 336.195 237.751 342.816 232.913C349.693 228.074 357.588 219.924 366.501 208.463C369.558 204.643 372.996 202.733 376.816 202.733ZM314.165 135.879C304.742 135.879 296.719 141.355 290.097 152.306C283.731 163.257 280.547 176.501 280.547 192.036V192.8C295.573 189.235 307.416 183.886 316.075 176.756C324.734 169.625 329.063 161.347 329.063 151.924C329.063 147.086 327.663 143.265 324.861 140.464C322.315 137.407 318.749 135.879 314.165 135.879Z" fill="#40403E"/>
<path d="M395.586 276.462V5.22721H489.181C533.241 5.22721 567.114 17.0699 590.799 40.7552C614.484 64.1859 626.327 97.6764 626.327 141.227C626.327 184.523 614.612 217.885 591.181 241.316C568.005 264.747 534.769 276.462 491.473 276.462H395.586ZM453.653 227.564H489.181C515.413 227.564 534.769 220.56 547.248 206.552C559.983 192.29 566.349 170.388 566.349 140.845C566.349 111.301 559.983 89.5266 547.248 75.5191C534.769 61.257 515.413 54.1259 489.181 54.1259H453.653V227.564ZM650.05 276.462V71.6989H707.354V276.462H650.05ZM648.904 46.4855V0.642944H708.118V46.4855H648.904ZM803.045 281.047C781.906 281.047 764.587 276.208 751.09 266.53C737.846 256.597 731.225 242.844 731.225 225.271C731.225 207.189 736.827 193.309 748.034 183.631C759.494 173.699 776.303 166.44 798.461 161.856L864.55 148.867C864.55 135.624 861.494 125.692 855.382 119.07C849.524 112.193 840.992 108.755 829.786 108.755C818.834 108.755 810.303 111.301 804.191 116.395C798.079 121.234 794.131 128.492 792.348 138.171L734.663 135.496C738.483 113.085 748.542 96.1483 764.843 84.6876C781.396 72.9724 803.045 67.1147 829.786 67.1147C860.348 67.1147 883.269 74.3731 898.55 88.8899C914.085 103.407 921.853 124.672 921.853 152.687V222.597C921.853 228.455 922.744 232.402 924.528 234.44C926.564 236.222 929.494 237.114 933.314 237.114H939.044V276.462C937.261 276.972 934.332 277.481 930.258 277.99C926.438 278.5 922.617 278.754 918.797 278.754C910.647 278.754 903.007 277.354 895.876 274.552C889 271.75 883.396 267.039 879.067 260.417C874.737 253.541 872.573 243.863 872.573 231.384L877.539 235.204C874.991 244.373 870.407 252.395 863.786 259.271C857.418 266.148 849.014 271.496 838.573 275.316C828.385 279.136 816.542 281.047 803.045 281.047ZM816.798 241.698C826.22 241.698 834.497 239.916 841.629 236.35C848.76 232.53 854.362 227.054 858.438 219.923C862.512 212.792 864.55 204.388 864.55 194.71V184.777L817.944 194.71C808.775 196.492 801.771 199.548 796.932 203.878C792.348 207.953 790.056 213.301 790.056 219.923C790.056 226.8 792.348 232.148 796.932 235.968C801.517 239.788 808.138 241.698 816.798 241.698ZM957.668 276.462V71.6989H1011.91L1013.82 131.294L1009.62 130.148C1012.93 109.519 1018.79 94.6202 1027.19 85.4517C1035.6 76.2832 1047.19 71.6989 1061.96 71.6989H1080.68V119.07H1061.96C1051.26 119.07 1042.47 120.47 1035.6 123.272C1028.72 126.074 1023.5 130.53 1019.94 136.643C1016.63 142.755 1014.97 151.032 1014.97 161.474V276.462H957.668ZM1116.72 333.766V290.979H1143.84C1150.47 290.979 1155.3 289.961 1158.36 287.923C1161.68 286.141 1164.22 282.829 1166 277.99L1170.2 266.148H1154.54L1082.72 71.6989H1141.17L1188.16 212.665L1232.09 71.6989H1290.54L1211.84 295.945C1207.26 309.444 1200.64 319.121 1191.98 324.979C1183.32 330.837 1171.23 333.766 1155.68 333.766H1116.72Z" fill="white"/>
</g>
</g>
<defs>
<clipPath id="clip0_7_66">
<rect width="1224" height="310" fill="white"/>
</clipPath>
<clipPath id="clip1_7_66">
<rect width="1323" height="333.766" fill="white" transform="translate(-32)"/>
</clipPath>
</defs>
</svg>
