<svg width="268" height="73" viewBox="0 0 268 73" fill="none" xmlns="http://www.w3.org/2000/svg">
<path d="M3 69.0798C58.5 65.2465 188.5 59.8798 264.5 69.0798" stroke="#61F453" stroke-width="6" stroke-linecap="round" stroke-linejoin="round"/>
<path d="M8.05446 53.3783C6.19871 53.3783 4.88016 52.4015 4.0988 50.4482C3.36626 48.4948 3 45.3693 3 41.0718C3 34.7233 3.90345 28.692 5.71036 22.9783C6.14988 21.562 6.85799 20.5365 7.8347 19.9017C8.86024 19.218 10.2765 18.8761 12.0834 18.8761C13.0601 18.8761 13.7438 18.9982 14.1345 19.2424C14.5251 19.4867 14.7205 19.9505 14.7205 20.6342C14.7205 21.4155 14.3542 23.1736 13.6217 25.9084C13.1333 27.8618 12.7427 29.5711 12.4496 31.0361C12.1566 32.4524 11.9124 34.2348 11.7171 36.3836C13.0357 32.5745 14.5984 29.3513 16.4053 26.7142C18.2611 24.0771 20.1412 22.1238 22.0458 20.854C23.9991 19.5354 25.8305 18.8761 27.5398 18.8761C29.2491 18.8761 30.4454 19.2668 31.1292 20.0482C31.8617 20.8295 32.228 22.026 32.228 23.6376C32.228 25.2004 31.764 28.0328 30.8361 32.1349C30.4454 33.893 30.1769 35.2116 30.0304 36.0906C32.4722 30.0839 35.1826 25.7132 38.1614 22.9783C41.1403 20.2435 43.924 18.8761 46.5123 18.8761C49.6867 18.8761 51.2737 20.4632 51.2737 23.6376C51.2737 25.5422 50.7365 28.9851 49.6622 33.9663C48.7344 38.2149 48.2704 41.023 48.2704 42.3904C48.2704 44.3437 48.9784 45.3205 50.3947 45.3205C51.3715 45.3205 52.519 44.7345 53.8376 43.5624C55.2049 42.3416 57.012 40.388 59.2583 37.7022C59.8443 37.0184 60.5036 36.6766 61.2361 36.6766C61.8709 36.6766 62.3594 36.9696 62.7012 37.5557C63.092 38.1417 63.2872 38.9475 63.2872 39.973C63.2872 41.9264 62.8232 43.4404 61.8954 44.5147C59.7956 47.103 57.5247 49.2274 55.0829 50.8877C52.69 52.548 49.9552 53.3783 46.8786 53.3783C44.388 53.3783 42.5079 52.6703 41.2381 51.254C39.9683 49.7889 39.3335 47.6891 39.3335 44.9542C39.3335 43.5869 39.6753 41.1451 40.359 37.6289C40.9938 34.5523 41.3113 32.428 41.3113 31.2559C41.3113 30.4746 41.0428 30.0839 40.5055 30.0839C39.8707 30.0839 38.9672 30.9141 37.7952 32.5745C36.6231 34.186 35.4511 36.3348 34.279 39.0207C33.107 41.7066 32.1547 44.5392 31.4222 47.5181C30.8849 49.8622 30.2501 51.425 29.5176 52.2063C28.8338 52.9876 27.7107 53.3783 26.148 53.3783C24.5364 53.3783 23.3156 52.6213 22.4853 51.1075C21.7039 49.5447 21.3133 47.6646 21.3133 45.467C21.3133 43.6112 21.5574 40.9253 22.0458 37.4092C22.4365 34.2838 22.6318 32.2327 22.6318 31.2559C22.6318 30.4746 22.3633 30.0839 21.826 30.0839C21.0935 30.0839 20.1656 30.9629 19.0424 32.721C17.9192 34.479 16.8204 36.7254 15.746 39.4602C14.7205 42.1951 13.8903 44.881 13.2554 47.5181C12.7182 49.8134 12.0834 51.376 11.3508 52.2063C10.6671 52.9876 9.56835 53.3783 8.05446 53.3783ZM81.3909 38.8742C82.0259 38.8742 82.5142 39.1672 82.856 39.7533C83.2467 40.3393 83.442 41.1451 83.442 42.1706C83.442 43.9287 83.027 45.4425 82.1967 46.7123C80.8294 48.8121 79.0226 50.4482 76.776 51.6202C74.5784 52.7923 71.9413 53.3783 68.8647 53.3783C64.1765 53.3783 60.5383 51.9865 57.95 49.2029C55.3618 46.3705 54.0676 42.5613 54.0676 37.7754C54.0676 34.4058 54.7758 31.2804 56.1919 28.399C57.6082 25.4689 59.5615 23.1493 62.0521 21.44C64.5917 19.7307 67.4486 18.8761 70.6227 18.8761C73.4553 18.8761 75.7262 19.7307 77.4353 21.44C79.1446 23.1003 79.9991 25.3712 79.9991 28.2525C79.9991 31.6222 78.7783 34.5278 76.3365 36.9696C73.9436 39.3625 69.8414 41.2671 64.03 42.6834C65.202 44.9297 67.1799 46.053 69.9635 46.053C71.9658 46.053 73.6018 45.589 74.8714 44.6612C76.19 43.7334 77.704 42.1706 79.4131 39.973C79.9991 39.2405 80.6584 38.8742 81.3909 38.8742ZM69.3774 26.0549C67.5706 26.0549 66.0323 27.105 64.7625 29.2048C63.5417 31.3047 62.9312 33.8442 62.9312 36.8231V36.9696C65.8125 36.2859 68.0834 35.2603 69.7437 33.893C71.4042 32.5257 72.2343 30.9384 72.2343 29.1316C72.2343 28.2038 71.9658 27.4712 71.4285 26.934C70.9402 26.348 70.2565 26.0549 69.3774 26.0549Z" fill="#61F453"/>
<path d="M84.9893 53.012V1.00241H102.936C111.385 1.00241 117.88 3.27325 122.422 7.81494C126.963 12.3078 129.234 18.7296 129.234 27.0805C129.234 35.3826 126.988 41.7799 122.495 46.2728C118.051 50.7657 111.678 53.012 103.376 53.012H84.9893ZM96.1237 43.6357H102.936C107.966 43.6357 111.678 42.2926 114.071 39.6067C116.513 36.8719 117.733 32.6722 117.733 27.0072C117.733 21.3423 116.513 17.1669 114.071 14.481C111.678 11.7462 107.966 10.3788 102.936 10.3788H96.1237V43.6357ZM133.783 53.012V13.7484H144.771V53.012H133.783ZM133.563 8.91373V0.123367H144.918V8.91373H133.563ZM163.12 53.8911C159.067 53.8911 155.746 52.9633 153.158 51.1075C150.618 49.2029 149.348 46.5658 149.348 43.1961C149.348 39.7288 150.423 37.0674 152.572 35.2116C154.769 33.307 157.992 31.9152 162.241 31.0361L174.914 28.5455C174.914 26.0062 174.328 24.1016 173.156 22.8318C172.032 21.5133 170.396 20.854 168.248 20.854C166.148 20.854 164.512 21.3423 163.34 22.319C162.168 23.2468 161.411 24.6387 161.069 26.4945L150.008 25.9817C150.74 21.6842 152.669 18.4366 155.795 16.239C158.969 13.9926 163.12 12.8694 168.248 12.8694C174.108 12.8694 178.503 14.2612 181.433 17.0448C184.412 19.8284 185.902 23.9061 185.902 29.2781V42.6834C185.902 43.8066 186.072 44.5635 186.414 44.9542C186.805 45.296 187.367 45.467 188.099 45.467H189.198V53.012C188.856 53.1098 188.295 53.2073 187.513 53.3051C186.781 53.4028 186.048 53.4516 185.316 53.4516C183.753 53.4516 182.288 53.183 180.92 52.6458C179.602 52.1085 178.527 51.2052 177.697 49.9354C176.867 48.6169 176.452 46.7611 176.452 44.3682L177.404 45.1007C176.916 46.8588 176.037 48.3971 174.767 49.7157C173.546 51.0342 171.935 52.0597 169.932 52.7923C167.979 53.5248 165.708 53.8911 163.12 53.8911ZM165.757 46.346C167.564 46.346 169.151 46.0042 170.519 45.3205C171.886 44.588 172.96 43.5379 173.742 42.1706C174.523 40.8033 174.914 39.1917 174.914 37.3359V35.4313L165.977 37.3359C164.219 37.6777 162.876 38.2637 161.948 39.094C161.069 39.8753 160.629 40.9008 160.629 42.1706C160.629 43.4892 161.069 44.5147 161.948 45.2472C162.827 45.9798 164.097 46.346 165.757 46.346ZM192.769 53.012V13.7484H203.171L203.537 25.1759L202.731 24.9561C203.365 21.0005 204.489 18.1436 206.101 16.3855C207.712 14.6275 209.935 13.7484 212.767 13.7484H216.356V22.8318H212.767C210.716 22.8318 209.031 23.1003 207.712 23.6376C206.394 24.1748 205.393 25.0294 204.709 26.2014C204.075 27.3735 203.757 28.9606 203.757 30.9629V53.012H192.769ZM223.267 64V55.7957H228.468C229.738 55.7957 230.666 55.6004 231.252 55.2096C231.888 54.8678 232.375 54.2329 232.717 53.3051L233.522 51.0342H230.519L216.748 13.7484H227.955L236.965 40.7788L245.389 13.7484H256.597L241.507 56.7479C240.628 59.3363 239.36 61.1919 237.698 62.3152C236.038 63.4385 233.719 64 230.739 64H223.267Z" fill="#F2F2F2"/>
</svg>
