<svg width="445" height="77" viewBox="0 0 445 77" fill="none" xmlns="http://www.w3.org/2000/svg">
<rect x="0.5" width="444" height="77" rx="8" fill="url(#paint0_linear_63_5548)"/>
<path d="M17.0113 61V26.824H25.2033V61H17.0113ZM16.8833 22.28V14.984H25.3953V22.28H16.8833ZM32.1388 61V26.824H39.5628L39.8828 36.424L38.9228 36.04C39.2641 33.6507 39.9681 31.7307 41.0348 30.28C42.1014 28.8293 43.4028 27.7627 44.9388 27.08C46.4748 26.3973 48.1601 26.056 49.9948 26.056C52.5121 26.056 54.6241 26.6107 56.3308 27.72C58.0801 28.8293 59.4028 30.3653 60.2988 32.328C61.1948 34.248 61.6428 36.488 61.6428 39.048V61H53.4508V41.672C53.4508 39.752 53.2588 38.1307 52.8748 36.808C52.4908 35.4853 51.8508 34.4827 50.9548 33.8C50.1014 33.0747 48.9494 32.712 47.4988 32.712C45.3228 32.712 43.5734 33.48 42.2508 35.016C40.9708 36.552 40.3308 38.7707 40.3308 41.672V61H32.1388ZM79.3373 61C75.9239 61 73.4066 60.2107 71.7853 58.632C70.2066 57.0533 69.4173 54.5787 69.4173 51.208V18.824H77.6093V50.44C77.6093 52.0187 77.9506 53.128 78.6333 53.768C79.3159 54.3653 80.3826 54.664 81.8333 54.664H86.6333V61H79.3373ZM64.0413 33.16V26.824H86.6333V33.16H64.0413ZM104.303 61.768C100.889 61.768 97.9241 61.0427 95.4067 59.592C92.8894 58.0987 90.9481 56.008 89.5827 53.32C88.2174 50.632 87.5347 47.496 87.5347 43.912C87.5347 40.328 88.2174 37.2133 89.5827 34.568C90.9481 31.88 92.8681 29.7893 95.3428 28.296C97.8601 26.8027 100.783 26.056 104.111 26.056C107.353 26.056 110.191 26.7813 112.623 28.232C115.097 29.6827 116.996 31.7733 118.319 34.504C119.641 37.2347 120.303 40.52 120.303 44.36V46.216H96.0468C96.2174 49.2027 97.0281 51.464 98.4788 53C99.9721 54.4933 101.935 55.24 104.367 55.24C106.201 55.24 107.716 54.8347 108.911 54.024C110.148 53.1707 111.001 51.9973 111.471 50.504L119.855 51.016C118.916 54.344 117.06 56.968 114.287 58.888C111.556 60.808 108.228 61.768 104.303 61.768ZM96.0468 40.712H111.855C111.684 37.9387 110.895 35.8907 109.487 34.568C108.079 33.2027 106.287 32.52 104.111 32.52C101.935 32.52 100.121 33.224 98.6708 34.632C97.2628 36.04 96.3881 38.0667 96.0468 40.712ZM124.146 61V26.824H131.826L132.146 36.296L131.442 36.168C131.954 32.8827 132.914 30.5147 134.322 29.064C135.773 27.5707 137.736 26.824 140.21 26.824H143.346V33.864H140.146C138.397 33.864 136.946 34.12 135.794 34.632C134.642 35.144 133.768 35.9547 133.17 37.064C132.616 38.1307 132.338 39.5387 132.338 41.288V61H124.146ZM145.711 61V26.824H153.135L153.455 36.424L152.495 36.04C152.837 33.6507 153.541 31.7307 154.607 30.28C155.674 28.8293 156.975 27.7627 158.511 27.08C160.047 26.3973 161.733 26.056 163.567 26.056C166.085 26.056 168.197 26.6107 169.903 27.72C171.653 28.8293 172.975 30.3653 173.871 32.328C174.767 34.248 175.215 36.488 175.215 39.048V61H167.023V41.672C167.023 39.752 166.831 38.1307 166.447 36.808C166.063 35.4853 165.423 34.4827 164.527 33.8C163.674 33.0747 162.522 32.712 161.071 32.712C158.895 32.712 157.146 33.48 155.823 35.016C154.543 36.552 153.903 38.7707 153.903 41.672V61H145.711ZM190.759 61.768C187.175 61.768 184.295 60.9573 182.119 59.336C179.943 57.672 178.855 55.368 178.855 52.424C178.855 49.48 179.772 47.176 181.607 45.512C183.441 43.848 186.236 42.6533 189.991 41.928L201.319 39.688C201.319 37.256 200.764 35.4427 199.655 34.248C198.545 33.0107 196.903 32.392 194.727 32.392C192.764 32.392 191.207 32.8613 190.055 33.8C188.945 34.696 188.177 35.9973 187.751 37.704L179.431 37.32C180.113 33.6933 181.777 30.92 184.423 29C187.068 27.0373 190.503 26.056 194.727 26.056C199.591 26.056 203.26 27.2933 205.735 29.768C208.252 32.2 209.511 35.6987 209.511 40.264V52.68C209.511 53.576 209.66 54.1947 209.959 54.536C210.3 54.8773 210.791 55.048 211.431 55.048H212.519V61C212.263 61.0853 211.836 61.1493 211.239 61.192C210.684 61.2347 210.108 61.256 209.511 61.256C208.103 61.256 206.844 61.0427 205.735 60.616C204.625 60.1467 203.772 59.3573 203.175 58.248C202.577 57.096 202.279 55.5387 202.279 53.576L202.983 54.088C202.641 55.5813 201.895 56.9253 200.743 58.12C199.633 59.272 198.225 60.168 196.519 60.808C194.812 61.448 192.892 61.768 190.759 61.768ZM192.423 55.816C194.257 55.816 195.836 55.4533 197.159 54.728C198.481 54.0027 199.505 53 200.231 51.72C200.956 50.44 201.319 48.9253 201.319 47.176V45.256L192.487 47.048C190.652 47.432 189.329 48.008 188.519 48.776C187.751 49.5013 187.367 50.4613 187.367 51.656C187.367 52.9787 187.793 54.0027 188.647 54.728C189.543 55.4533 190.801 55.816 192.423 55.816ZM222.971 61C220.496 61 218.512 60.36 217.019 59.08C215.525 57.8 214.779 55.752 214.779 52.936V15.56H222.971V52.104C222.971 52.9573 223.184 53.5973 223.611 54.024C224.08 54.4507 224.72 54.664 225.531 54.664H228.027V61H222.971ZM244.424 70.6V26.824H252.296L252.488 34.12L251.656 33.736C252.509 31.2187 253.896 29.32 255.816 28.04C257.778 26.7173 260.061 26.056 262.664 26.056C265.906 26.056 268.594 26.8667 270.728 28.488C272.904 30.1093 274.525 32.264 275.592 34.952C276.658 37.64 277.192 40.6267 277.192 43.912C277.192 47.1973 276.637 50.184 275.528 52.872C274.461 55.56 272.84 57.7147 270.664 59.336C268.53 60.9573 265.842 61.768 262.6 61.768C260.893 61.768 259.293 61.4693 257.8 60.872C256.349 60.2747 255.09 59.4213 254.024 58.312C253 57.2027 252.274 55.9013 251.848 54.408L252.616 53.768V70.6H244.424ZM260.68 55.112C263.154 55.112 265.096 54.1307 266.504 52.168C267.954 50.1627 268.68 47.4107 268.68 43.912C268.68 40.4133 267.954 37.6827 266.504 35.72C265.096 33.7147 263.154 32.712 260.68 32.712C259.016 32.712 257.586 33.1387 256.392 33.992C255.197 34.8027 254.258 36.04 253.576 37.704C252.936 39.368 252.616 41.4373 252.616 43.912C252.616 46.3867 252.936 48.456 253.576 50.12C254.216 51.784 255.133 53.0427 256.328 53.896C257.565 54.7067 259.016 55.112 260.68 55.112ZM296.413 61.768C292.999 61.768 290.034 61.0427 287.517 59.592C284.999 58.0987 283.058 56.008 281.693 53.32C280.327 50.632 279.645 47.496 279.645 43.912C279.645 40.328 280.327 37.2133 281.693 34.568C283.058 31.88 284.978 29.7893 287.453 28.296C289.97 26.8027 292.893 26.056 296.221 26.056C299.463 26.056 302.301 26.7813 304.733 28.232C307.207 29.6827 309.106 31.7733 310.429 34.504C311.751 37.2347 312.413 40.52 312.413 44.36V46.216H288.157C288.327 49.2027 289.138 51.464 290.589 53C292.082 54.4933 294.045 55.24 296.477 55.24C298.311 55.24 299.826 54.8347 301.021 54.024C302.258 53.1707 303.111 51.9973 303.581 50.504L311.965 51.016C311.026 54.344 309.17 56.968 306.397 58.888C303.666 60.808 300.338 61.768 296.413 61.768ZM288.157 40.712H303.965C303.794 37.9387 303.005 35.8907 301.597 34.568C300.189 33.2027 298.397 32.52 296.221 32.52C294.045 32.52 292.231 33.224 290.781 34.632C289.373 36.04 288.498 38.0667 288.157 40.712ZM327.316 61.768C323.732 61.768 320.852 60.9573 318.676 59.336C316.5 57.672 315.412 55.368 315.412 52.424C315.412 49.48 316.33 47.176 318.164 45.512C319.999 43.848 322.794 42.6533 326.548 41.928L337.876 39.688C337.876 37.256 337.322 35.4427 336.212 34.248C335.103 33.0107 333.46 32.392 331.284 32.392C329.322 32.392 327.764 32.8613 326.612 33.8C325.503 34.696 324.735 35.9973 324.308 37.704L315.988 37.32C316.671 33.6933 318.335 30.92 320.98 29C323.626 27.0373 327.06 26.056 331.284 26.056C336.148 26.056 339.818 27.2933 342.292 29.768C344.81 32.2 346.068 35.6987 346.068 40.264V52.68C346.068 53.576 346.218 54.1947 346.516 54.536C346.858 54.8773 347.348 55.048 347.988 55.048H349.076V61C348.82 61.0853 348.394 61.1493 347.796 61.192C347.242 61.2347 346.666 61.256 346.068 61.256C344.66 61.256 343.402 61.0427 342.292 60.616C341.183 60.1467 340.33 59.3573 339.732 58.248C339.135 57.096 338.836 55.5387 338.836 53.576L339.54 54.088C339.199 55.5813 338.452 56.9253 337.3 58.12C336.191 59.272 334.783 60.168 333.076 60.808C331.37 61.448 329.45 61.768 327.316 61.768ZM328.98 55.816C330.815 55.816 332.394 55.4533 333.716 54.728C335.039 54.0027 336.063 53 336.788 51.72C337.514 50.44 337.876 48.9253 337.876 47.176V45.256L329.044 47.048C327.21 47.432 325.887 48.008 325.076 48.776C324.308 49.5013 323.924 50.4613 323.924 51.656C323.924 52.9787 324.351 54.0027 325.204 54.728C326.1 55.4533 327.359 55.816 328.98 55.816ZM366.949 61.768C363.536 61.768 360.571 61.0427 358.053 59.592C355.536 58.0987 353.573 56.008 352.165 53.32C350.8 50.632 350.117 47.496 350.117 43.912C350.117 40.328 350.8 37.2133 352.165 34.568C353.573 31.88 355.536 29.7893 358.053 28.296C360.571 26.8027 363.536 26.056 366.949 26.056C369.851 26.056 372.432 26.568 374.693 27.592C376.955 28.616 378.789 30.088 380.197 32.008C381.648 33.8853 382.544 36.1893 382.885 38.92L374.437 39.368C374.096 37.192 373.243 35.5493 371.877 34.44C370.555 33.288 368.912 32.712 366.949 32.712C364.304 32.712 362.256 33.7147 360.805 35.72C359.355 37.6827 358.629 40.4133 358.629 43.912C358.629 47.4533 359.355 50.2053 360.805 52.168C362.256 54.1307 364.304 55.112 366.949 55.112C368.955 55.112 370.619 54.536 371.941 53.384C373.307 52.232 374.139 50.44 374.437 48.008L382.885 48.392C382.544 51.1227 381.669 53.4907 380.261 55.496C378.853 57.5013 377.019 59.0587 374.757 60.168C372.496 61.2347 369.893 61.768 366.949 61.768ZM401.465 61.768C398.052 61.768 395.087 61.0427 392.569 59.592C390.052 58.0987 388.111 56.008 386.745 53.32C385.38 50.632 384.697 47.496 384.697 43.912C384.697 40.328 385.38 37.2133 386.745 34.568C388.111 31.88 390.031 29.7893 392.505 28.296C395.023 26.8027 397.945 26.056 401.273 26.056C404.516 26.056 407.353 26.7813 409.785 28.232C412.26 29.6827 414.159 31.7733 415.481 34.504C416.804 37.2347 417.465 40.52 417.465 44.36V46.216H393.209C393.38 49.2027 394.191 51.464 395.641 53C397.135 54.4933 399.097 55.24 401.529 55.24C403.364 55.24 404.879 54.8347 406.073 54.024C407.311 53.1707 408.164 51.9973 408.633 50.504L417.017 51.016C416.079 54.344 414.223 56.968 411.449 58.888C408.719 60.808 405.391 61.768 401.465 61.768ZM393.209 40.712H409.017C408.847 37.9387 408.057 35.8907 406.649 34.568C405.241 33.2027 403.449 32.52 401.273 32.52C399.097 32.52 397.284 33.224 395.833 34.632C394.425 36.04 393.551 38.0667 393.209 40.712ZM420.59 61V52.04H429.934V61H420.59Z" fill="#F2F2F2"/>
<defs>
<linearGradient id="paint0_linear_63_5548" x1="223.013" y1="127.5" x2="223.013" y2="-2.57027e-06" gradientUnits="userSpaceOnUse">
<stop stop-color="#61F453"/>
<stop offset="1" stop-color="#388E30"/>
</linearGradient>
</defs>
</svg>
