<svg width="277" height="76" viewBox="0 0 277 76" fill="none" xmlns="http://www.w3.org/2000/svg">
<path d="M19.659 55.768C16.2457 55.768 13.2803 55.0427 10.763 53.592C8.24567 52.0987 6.30434 50.008 4.939 47.32C3.57367 44.632 2.891 41.496 2.891 37.912C2.891 34.328 3.57367 31.2133 4.939 28.568C6.30434 25.88 8.22434 23.7893 10.699 22.296C13.2163 20.8027 16.139 20.056 19.467 20.056C22.7097 20.056 25.547 20.7813 27.979 22.232C30.4537 23.6827 32.3523 25.7733 33.675 28.504C34.9977 31.2347 35.659 34.52 35.659 38.36V40.216H11.403C11.5737 43.2027 12.3843 45.464 13.835 47C15.3283 48.4933 17.291 49.24 19.723 49.24C21.5577 49.24 23.0723 48.8347 24.267 48.024C25.5043 47.1707 26.3577 45.9973 26.827 44.504L35.211 45.016C34.2723 48.344 32.4163 50.968 29.643 52.888C26.9123 54.808 23.5843 55.768 19.659 55.768ZM11.403 34.712H27.211C27.0403 31.9387 26.251 29.8907 24.843 28.568C23.435 27.2027 21.643 26.52 19.467 26.52C17.291 26.52 15.4777 27.224 14.027 28.632C12.619 30.04 11.7443 32.0667 11.403 34.712ZM39.5025 55V20.824H46.9265L47.1825 29.208L46.4145 28.824C46.7985 26.9893 47.4598 25.432 48.3985 24.152C49.3798 22.8293 50.5532 21.8267 51.9185 21.144C53.3265 20.4187 54.8625 20.056 56.5265 20.056C59.4278 20.056 61.7745 20.888 63.5665 22.552C65.3585 24.1733 66.4892 26.4133 66.9585 29.272H65.8705C66.2545 27.2667 66.9158 25.6027 67.8545 24.28C68.7932 22.9147 69.9665 21.8693 71.3745 21.144C72.8252 20.4187 74.4465 20.056 76.2385 20.056C78.5852 20.056 80.6118 20.568 82.3185 21.592C84.0252 22.5733 85.3265 24.024 86.2225 25.944C87.1612 27.864 87.6305 30.232 87.6305 33.048V55H79.4385V35.16C79.4385 32.344 78.9478 30.232 77.9665 28.824C77.0278 27.416 75.5772 26.712 73.6145 26.712C72.2918 26.712 71.1612 27.0533 70.2225 27.736C69.2838 28.4187 68.5585 29.4213 68.0465 30.744C67.5772 32.024 67.3425 33.5813 67.3425 35.416V55H59.7265V35.416C59.7265 32.6 59.2998 30.4453 58.4465 28.952C57.5932 27.4587 56.1212 26.712 54.0305 26.712C52.7078 26.712 51.5772 27.0533 50.6385 27.736C49.7425 28.4187 49.0172 29.4213 48.4625 30.744C47.9505 32.024 47.6945 33.5813 47.6945 35.416V55H39.5025ZM108.041 55.768C104.67 55.768 101.705 55.0427 99.1445 53.592C96.6272 52.0987 94.6645 50.008 93.2565 47.32C91.8912 44.632 91.2085 41.496 91.2085 37.912C91.2085 34.2853 91.8912 31.1493 93.2565 28.504C94.6645 25.816 96.6272 23.7467 99.1445 22.296C101.705 20.8027 104.67 20.056 108.041 20.056C111.411 20.056 114.355 20.8027 116.873 22.296C119.39 23.7467 121.331 25.816 122.697 28.504C124.105 31.1493 124.809 34.2853 124.809 37.912C124.809 41.496 124.105 44.632 122.697 47.32C121.331 50.008 119.39 52.0987 116.873 53.592C114.355 55.0427 111.411 55.768 108.041 55.768ZM108.041 49.112C110.686 49.112 112.713 48.1307 114.121 46.168C115.571 44.2053 116.297 41.4533 116.297 37.912C116.297 34.4133 115.571 31.6827 114.121 29.72C112.713 27.7147 110.686 26.712 108.041 26.712C105.395 26.712 103.347 27.7147 101.897 29.72C100.446 31.6827 99.7205 34.4133 99.7205 37.912C99.7205 41.4533 100.446 44.2053 101.897 46.168C103.347 48.1307 105.395 49.112 108.041 49.112ZM141.079 55C137.665 55 135.148 54.2107 133.527 52.632C131.948 51.0533 131.159 48.5787 131.159 45.208V12.824H139.351V44.44C139.351 46.0187 139.692 47.128 140.375 47.768C141.057 48.3653 142.124 48.664 143.575 48.664H148.375V55H141.079ZM125.783 27.16V20.824H148.375V27.16H125.783ZM151.822 55V20.824H160.014V55H151.822ZM151.694 16.28V8.984H160.206V16.28H151.694ZM180.673 55.768C177.302 55.768 174.337 55.0427 171.777 53.592C169.26 52.0987 167.297 50.008 165.889 47.32C164.524 44.632 163.841 41.496 163.841 37.912C163.841 34.2853 164.524 31.1493 165.889 28.504C167.297 25.816 169.26 23.7467 171.777 22.296C174.337 20.8027 177.302 20.056 180.673 20.056C184.044 20.056 186.988 20.8027 189.505 22.296C192.022 23.7467 193.964 25.816 195.329 28.504C196.737 31.1493 197.441 34.2853 197.441 37.912C197.441 41.496 196.737 44.632 195.329 47.32C193.964 50.008 192.022 52.0987 189.505 53.592C186.988 55.0427 184.044 55.768 180.673 55.768ZM180.673 49.112C183.318 49.112 185.345 48.1307 186.753 46.168C188.204 44.2053 188.929 41.4533 188.929 37.912C188.929 34.4133 188.204 31.6827 186.753 29.72C185.345 27.7147 183.318 26.712 180.673 26.712C178.028 26.712 175.98 27.7147 174.529 29.72C173.078 31.6827 172.353 34.4133 172.353 37.912C172.353 41.4533 173.078 44.2053 174.529 46.168C175.98 48.1307 178.028 49.112 180.673 49.112ZM201.203 55V20.824H208.627L208.947 30.424L207.987 30.04C208.328 27.6507 209.032 25.7307 210.099 24.28C211.165 22.8293 212.467 21.7627 214.003 21.08C215.539 20.3973 217.224 20.056 219.059 20.056C221.576 20.056 223.688 20.6107 225.395 21.72C227.144 22.8293 228.467 24.3653 229.363 26.328C230.259 28.248 230.707 30.488 230.707 33.048V55H222.515V35.672C222.515 33.752 222.323 32.1307 221.939 30.808C221.555 29.4853 220.915 28.4827 220.019 27.8C219.165 27.0747 218.013 26.712 216.563 26.712C214.387 26.712 212.637 27.48 211.315 29.016C210.035 30.552 209.395 32.7707 209.395 35.672V55H201.203ZM250.156 55.768C246.785 55.768 243.948 55.2773 241.644 54.296C239.382 53.3147 237.633 51.9493 236.396 50.2C235.158 48.4507 234.454 46.4667 234.284 44.248L242.668 43.864C242.966 45.656 243.713 47.0427 244.908 48.024C246.102 49.0053 247.873 49.496 250.22 49.496C252.14 49.496 253.633 49.1973 254.7 48.6C255.809 47.96 256.364 46.9787 256.364 45.656C256.364 44.888 256.172 44.248 255.788 43.736C255.404 43.224 254.678 42.776 253.612 42.392C252.545 42.008 250.966 41.624 248.876 41.24C245.377 40.6427 242.625 39.9173 240.62 39.064C238.614 38.168 237.185 37.0587 236.332 35.736C235.521 34.4133 235.116 32.7707 235.116 30.808C235.116 27.608 236.332 25.0267 238.764 23.064C241.238 21.0587 244.844 20.056 249.58 20.056C252.652 20.056 255.233 20.568 257.324 21.592C259.414 22.5733 261.036 23.9387 262.188 25.688C263.382 27.3947 264.129 29.3573 264.428 31.576L256.172 31.96C255.958 30.808 255.574 29.8053 255.02 28.952C254.465 28.0987 253.718 27.4587 252.78 27.032C251.841 26.5627 250.732 26.328 249.452 26.328C247.532 26.328 246.081 26.712 245.1 27.48C244.118 28.248 243.628 29.272 243.628 30.552C243.628 31.448 243.841 32.1947 244.268 32.792C244.737 33.3893 245.484 33.88 246.508 34.264C247.532 34.6053 248.897 34.9253 250.604 35.224C254.188 35.7787 257.004 36.504 259.052 37.4C261.142 38.2533 262.614 39.3627 263.468 40.728C264.364 42.0507 264.812 43.6507 264.812 45.528C264.812 47.704 264.193 49.56 262.956 51.096C261.761 52.632 260.054 53.8053 257.836 54.616C255.66 55.384 253.1 55.768 250.156 55.768ZM267.862 65.112L271.19 55H267.286V46.04H276.63V53.976L272.406 65.112H267.862Z" fill="#F2F2F2"/>
<path d="M7 72.5C62.5 68.6667 192.5 63.3 268.5 72.5" stroke="#61F453" stroke-width="6" stroke-linecap="round" stroke-linejoin="round"/>
</svg>
