<svg width="1784" height="221" viewBox="0 0 1784 221" fill="none" xmlns="http://www.w3.org/2000/svg">
<g opacity="0.5" clip-path="url(#clip0_173_27)">
<g clip-path="url(#clip1_173_27)">
<path d="M17.2718 183.99C10.8752 183.99 6.33034 180.623 3.63705 173.89C1.11209 167.157 -0.150391 156.384 -0.150391 141.571C-0.150391 119.688 2.96373 98.8989 9.19196 79.2042C10.7069 74.3224 13.1477 70.7875 16.5143 68.5994C20.0493 66.2427 24.9309 65.0645 31.1591 65.0645C34.5258 65.0645 36.8823 65.4853 38.229 66.3269C39.5757 67.1688 40.249 68.7675 40.249 71.1244C40.249 73.8174 38.9865 79.8773 36.4615 89.3041C34.7783 96.0371 33.4316 101.929 32.4216 106.979C31.4116 111.861 30.5699 118.004 29.8966 125.411C34.4416 112.281 39.8282 101.171 46.0564 92.0815C52.453 82.9917 58.9337 76.2587 65.4986 71.8818C72.2316 67.3369 78.544 65.0645 84.4358 65.0645C90.3276 65.0645 94.4512 66.4111 96.8081 69.1044C99.3331 71.7975 100.596 75.9218 100.596 81.4767C100.596 86.8635 98.9962 96.6265 95.7981 110.766C94.4512 116.826 93.5257 121.371 93.0207 124.401C101.437 103.696 110.78 88.631 121.048 79.2042C131.316 69.7775 140.911 65.0645 149.832 65.0645C160.774 65.0645 166.245 70.535 166.245 81.4767C166.245 88.0416 164.393 99.9089 160.69 117.079C157.492 131.723 155.892 141.403 155.892 146.116C155.892 152.849 158.333 156.216 163.215 156.216C166.581 156.216 170.537 154.196 175.082 150.156C179.795 145.948 186.024 139.214 193.767 129.956C195.787 127.599 198.059 126.421 200.584 126.421C202.772 126.421 204.456 127.431 205.634 129.451C206.981 131.471 207.654 134.248 207.654 137.783C207.654 144.516 206.055 149.735 202.856 153.438C195.618 162.36 187.791 169.682 179.374 175.405C171.126 181.128 161.7 183.99 151.095 183.99C142.51 183.99 136.029 181.55 131.653 176.668C127.276 171.618 125.088 164.38 125.088 154.953C125.088 150.24 126.266 141.823 128.623 129.703C130.811 119.099 131.905 111.776 131.905 107.736C131.905 105.043 130.979 103.696 129.128 103.696C126.94 103.696 123.825 106.558 119.785 112.281C115.745 117.836 111.705 125.243 107.665 134.501C103.625 143.759 100.343 153.522 97.8181 163.79C95.9662 171.87 93.7781 177.257 91.2532 179.95C88.8963 182.643 85.0252 183.99 79.6384 183.99C74.0835 183.99 69.8754 181.381 67.0136 176.163C64.3203 170.776 62.9736 164.295 62.9736 156.721C62.9736 150.324 63.8153 141.066 65.4986 128.946C66.8455 118.173 67.5186 111.103 67.5186 107.736C67.5186 105.043 66.593 103.696 64.7411 103.696C62.2161 103.696 59.0179 106.726 55.1462 112.786C51.2746 118.846 47.4872 126.589 43.7839 136.016C40.249 145.443 37.3873 154.701 35.1991 163.79C33.3474 171.702 31.1591 177.088 28.6342 179.95C26.2775 182.643 22.4901 183.99 17.2718 183.99ZM270.056 133.996C272.244 133.996 273.927 135.006 275.106 137.026C276.452 139.046 277.126 141.823 277.126 145.358C277.126 151.418 275.695 156.636 272.833 161.013C268.12 168.251 261.892 173.89 254.148 177.93C246.573 181.97 237.484 183.99 226.879 183.99C210.719 183.99 198.179 179.193 189.257 169.598C180.336 159.835 175.875 146.705 175.875 130.208C175.875 118.594 178.316 107.821 183.197 97.889C188.079 87.7891 194.812 79.7936 203.397 73.9018C212.15 68.01 221.998 65.0645 232.939 65.0645C242.702 65.0645 250.53 68.01 256.421 73.9018C262.313 79.6248 265.258 87.4522 265.258 97.384C265.258 108.999 261.05 119.014 252.633 127.431C244.385 135.679 230.246 142.244 210.214 147.126C214.254 154.869 221.071 158.741 230.666 158.741C237.568 158.741 243.207 157.141 247.583 153.943C252.128 150.745 257.347 145.358 263.238 137.783C265.258 135.258 267.531 133.996 270.056 133.996ZM228.646 89.8091C222.418 89.8091 217.116 93.4284 212.739 100.666C208.531 107.904 206.427 116.658 206.427 126.926V127.431C216.358 125.074 224.186 121.539 229.909 116.826C235.632 112.113 238.494 106.642 238.494 100.414C238.494 97.2158 237.568 94.6909 235.716 92.839C234.033 90.8191 231.676 89.8091 228.646 89.8091Z" fill="#40403E"/>
<path d="M282.461 182.727V3.45477H344.322C373.444 3.45477 395.832 11.2822 411.486 26.9369C427.141 42.4234 434.969 64.5588 434.969 93.3434C434.969 121.96 427.226 144.011 411.739 159.497C396.421 174.984 374.454 182.727 345.837 182.727H282.461ZM320.84 150.407H344.322C361.66 150.407 374.454 145.778 382.702 136.52C391.119 127.093 395.327 112.617 395.327 93.0909C395.327 73.5643 391.119 59.1722 382.702 49.9141C374.454 40.4875 361.66 35.7743 344.322 35.7743H320.84V150.407ZM450.649 182.727V47.3891H488.523V182.727H450.649ZM449.891 30.7243V0.424805H489.028V30.7243H449.891ZM551.77 185.757C537.798 185.757 526.352 182.559 517.43 176.162C508.677 169.597 504.301 160.507 504.301 148.893C504.301 136.941 508.004 127.767 515.41 121.37C522.985 114.806 534.095 110.008 548.74 106.978L592.422 98.3933C592.422 89.6403 590.402 83.0754 586.362 78.6986C582.49 74.1537 576.851 71.8812 569.445 71.8812C562.206 71.8812 556.567 73.5643 552.527 76.9311C548.487 80.1292 545.878 84.9266 544.7 91.3234L506.573 89.5559C509.098 74.7431 515.747 63.5488 526.52 55.974C537.461 48.2308 551.77 44.3591 569.445 44.3591C589.644 44.3591 604.794 49.1566 614.894 58.7514C625.162 68.3463 630.296 82.4017 630.296 100.918V147.125C630.296 150.997 630.885 153.606 632.064 154.952C633.41 156.131 635.346 156.72 637.871 156.72H641.659V182.727C640.48 183.064 638.544 183.4 635.851 183.737C633.326 184.074 630.801 184.242 628.276 184.242C622.889 184.242 617.839 183.316 613.126 181.465C608.582 179.613 604.878 176.499 602.017 172.122C599.155 167.577 597.724 161.18 597.724 152.932L601.007 155.457C599.323 161.517 596.293 166.82 591.917 171.365C587.708 175.91 582.153 179.445 575.252 181.969C568.518 184.494 560.691 185.757 551.77 185.757ZM560.86 159.75C567.088 159.75 572.558 158.572 577.272 156.215C581.985 153.69 585.688 150.071 588.382 145.358C591.075 140.645 592.422 135.09 592.422 128.693V122.128L561.617 128.693C555.557 129.871 550.928 131.891 547.73 134.753C544.7 137.446 543.185 140.981 543.185 145.358C543.185 149.902 544.7 153.437 547.73 155.962C550.76 158.487 555.136 159.75 560.86 159.75ZM653.968 182.727V47.3891H689.821L691.083 86.7785L688.306 86.021C690.492 72.3862 694.366 62.5389 699.921 56.4789C705.476 50.419 713.137 47.3891 722.898 47.3891H735.27V78.6986H722.898C715.828 78.6986 710.02 79.6242 705.476 81.4761C700.931 83.3279 697.482 86.2735 695.123 90.3134C692.937 94.3534 691.841 99.8239 691.841 106.726V182.727H653.968ZM759.091 220.601V192.322H777.018C781.397 192.322 784.593 191.649 786.613 190.302C788.806 189.124 790.487 186.935 791.663 183.737L794.441 175.91H784.088L736.619 47.3891H775.251L806.308 140.56L835.345 47.3891H873.977L821.963 195.604C818.933 204.526 814.561 210.922 808.833 214.794C803.112 218.666 795.118 220.601 784.846 220.601H759.091Z" fill="white"/>
</g>
</g>
<g opacity="0.5" clip-path="url(#clip2_173_27)">
<g clip-path="url(#clip3_173_27)">
<path d="M927.272 183.99C920.875 183.99 916.33 180.623 913.637 173.89C911.112 167.157 909.85 156.384 909.85 141.571C909.85 119.688 912.964 98.8989 919.192 79.2042C920.707 74.3224 923.148 70.7875 926.514 68.5994C930.049 66.2427 934.931 65.0645 941.159 65.0645C944.526 65.0645 946.882 65.4853 948.229 66.3269C949.576 67.1688 950.249 68.7675 950.249 71.1244C950.249 73.8174 948.986 79.8773 946.462 89.3041C944.778 96.0371 943.432 101.929 942.422 106.979C941.412 111.861 940.57 118.004 939.897 125.411C944.442 112.281 949.828 101.171 956.056 92.0815C962.453 82.9917 968.934 76.2587 975.499 71.8818C982.232 67.3369 988.544 65.0645 994.436 65.0645C1000.33 65.0645 1004.45 66.4111 1006.81 69.1044C1009.33 71.7975 1010.6 75.9218 1010.6 81.4767C1010.6 86.8635 1009 96.6265 1005.8 110.766C1004.45 116.826 1003.53 121.371 1003.02 124.401C1011.44 103.696 1020.78 88.631 1031.05 79.2042C1041.32 69.7775 1050.91 65.0645 1059.83 65.0645C1070.77 65.0645 1076.24 70.535 1076.24 81.4767C1076.24 88.0416 1074.39 99.9089 1070.69 117.079C1067.49 131.723 1065.89 141.403 1065.89 146.116C1065.89 152.849 1068.33 156.216 1073.21 156.216C1076.58 156.216 1080.54 154.196 1085.08 150.156C1089.79 145.948 1096.02 139.214 1103.77 129.956C1105.79 127.599 1108.06 126.421 1110.58 126.421C1112.77 126.421 1114.46 127.431 1115.63 129.451C1116.98 131.471 1117.65 134.248 1117.65 137.783C1117.65 144.516 1116.05 149.735 1112.86 153.438C1105.62 162.36 1097.79 169.682 1089.37 175.405C1081.13 181.128 1071.7 183.99 1061.09 183.99C1052.51 183.99 1046.03 181.55 1041.65 176.668C1037.28 171.618 1035.09 164.38 1035.09 154.953C1035.09 150.24 1036.27 141.823 1038.62 129.703C1040.81 119.099 1041.91 111.776 1041.91 107.736C1041.91 105.043 1040.98 103.696 1039.13 103.696C1036.94 103.696 1033.83 106.558 1029.79 112.281C1025.75 117.836 1021.71 125.243 1017.67 134.501C1013.63 143.759 1010.34 153.522 1007.82 163.79C1005.97 171.87 1003.78 177.257 1001.25 179.95C998.896 182.643 995.025 183.99 989.638 183.99C984.083 183.99 979.875 181.381 977.014 176.163C974.32 170.776 972.974 164.295 972.974 156.721C972.974 150.324 973.815 141.066 975.499 128.946C976.845 118.173 977.519 111.103 977.519 107.736C977.519 105.043 976.593 103.696 974.741 103.696C972.216 103.696 969.018 106.726 965.146 112.786C961.275 118.846 957.487 126.589 953.784 136.016C950.249 145.443 947.387 154.701 945.199 163.79C943.347 171.702 941.159 177.088 938.634 179.95C936.278 182.643 932.49 183.99 927.272 183.99ZM1180.06 133.996C1182.24 133.996 1183.93 135.006 1185.11 137.026C1186.45 139.046 1187.13 141.823 1187.13 145.358C1187.13 151.418 1185.69 156.636 1182.83 161.013C1178.12 168.251 1171.89 173.89 1164.15 177.93C1156.57 181.97 1147.48 183.99 1136.88 183.99C1120.72 183.99 1108.18 179.193 1099.26 169.598C1090.34 159.835 1085.87 146.705 1085.87 130.208C1085.87 118.594 1088.32 107.821 1093.2 97.889C1098.08 87.7891 1104.81 79.7936 1113.4 73.9018C1122.15 68.01 1132 65.0645 1142.94 65.0645C1152.7 65.0645 1160.53 68.01 1166.42 73.9018C1172.31 79.6248 1175.26 87.4522 1175.26 97.384C1175.26 108.999 1171.05 119.014 1162.63 127.431C1154.39 135.679 1140.25 142.244 1120.21 147.126C1124.25 154.869 1131.07 158.741 1140.67 158.741C1147.57 158.741 1153.21 157.141 1157.58 153.943C1162.13 150.745 1167.35 145.358 1173.24 137.783C1175.26 135.258 1177.53 133.996 1180.06 133.996ZM1138.65 89.8091C1132.42 89.8091 1127.12 93.4284 1122.74 100.666C1118.53 107.904 1116.43 116.658 1116.43 126.926V127.431C1126.36 125.074 1134.19 121.539 1139.91 116.826C1145.63 112.113 1148.49 106.642 1148.49 100.414C1148.49 97.2158 1147.57 94.6909 1145.72 92.839C1144.03 90.8191 1141.68 89.8091 1138.65 89.8091Z" fill="#40403E"/>
<path d="M1192.46 182.727V3.45477H1254.32C1283.44 3.45477 1305.83 11.2822 1321.49 26.9369C1337.14 42.4234 1344.97 64.5588 1344.97 93.3434C1344.97 121.96 1337.23 144.011 1321.74 159.497C1306.42 174.984 1284.45 182.727 1255.84 182.727H1192.46ZM1230.84 150.407H1254.32C1271.66 150.407 1284.45 145.778 1292.7 136.52C1301.12 127.093 1305.33 112.617 1305.33 93.0909C1305.33 73.5643 1301.12 59.1722 1292.7 49.9141C1284.45 40.4875 1271.66 35.7743 1254.32 35.7743H1230.84V150.407ZM1360.65 182.727V47.3891H1398.52V182.727H1360.65ZM1359.89 30.7243V0.424805H1399.03V30.7243H1359.89ZM1461.77 185.757C1447.8 185.757 1436.35 182.559 1427.43 176.162C1418.68 169.597 1414.3 160.507 1414.3 148.893C1414.3 136.941 1418 127.767 1425.41 121.37C1432.99 114.806 1444.1 110.008 1458.74 106.978L1502.42 98.3933C1502.42 89.6403 1500.4 83.0754 1496.36 78.6986C1492.49 74.1537 1486.85 71.8812 1479.44 71.8812C1472.21 71.8812 1466.57 73.5643 1462.53 76.9311C1458.49 80.1292 1455.88 84.9266 1454.7 91.3234L1416.57 89.5559C1419.1 74.7431 1425.75 63.5488 1436.52 55.974C1447.46 48.2308 1461.77 44.3591 1479.44 44.3591C1499.64 44.3591 1514.79 49.1566 1524.89 58.7514C1535.16 68.3463 1540.3 82.4017 1540.3 100.918V147.125C1540.3 150.997 1540.88 153.606 1542.06 154.952C1543.41 156.131 1545.35 156.72 1547.87 156.72H1551.66V182.727C1550.48 183.064 1548.54 183.4 1545.85 183.737C1543.33 184.074 1540.8 184.242 1538.28 184.242C1532.89 184.242 1527.84 183.316 1523.13 181.465C1518.58 179.613 1514.88 176.499 1512.02 172.122C1509.15 167.577 1507.72 161.18 1507.72 152.932L1511.01 155.457C1509.32 161.517 1506.29 166.82 1501.92 171.365C1497.71 175.91 1492.15 179.445 1485.25 181.969C1478.52 184.494 1470.69 185.757 1461.77 185.757ZM1470.86 159.75C1477.09 159.75 1482.56 158.572 1487.27 156.215C1491.99 153.69 1495.69 150.071 1498.38 145.358C1501.07 140.645 1502.42 135.09 1502.42 128.693V122.128L1471.62 128.693C1465.56 129.871 1460.93 131.891 1457.73 134.753C1454.7 137.446 1453.19 140.981 1453.19 145.358C1453.19 149.902 1454.7 153.437 1457.73 155.962C1460.76 158.487 1465.14 159.75 1470.86 159.75ZM1563.97 182.727V47.3891H1599.82L1601.08 86.7785L1598.31 86.021C1600.49 72.3862 1604.37 62.5389 1609.92 56.4789C1615.48 50.419 1623.14 47.3891 1632.9 47.3891H1645.27V78.6986H1632.9C1625.83 78.6986 1620.02 79.6242 1615.48 81.4761C1610.93 83.3279 1607.48 86.2735 1605.12 90.3134C1602.94 94.3534 1601.84 99.8239 1601.84 106.726V182.727H1563.97ZM1669.09 220.601V192.322H1687.02C1691.4 192.322 1694.59 191.649 1696.61 190.302C1698.81 189.124 1700.49 186.935 1701.66 183.737L1704.44 175.91H1694.09L1646.62 47.3891H1685.25L1716.31 140.56L1745.34 47.3891H1783.98L1731.96 195.604C1728.93 204.526 1724.56 210.922 1718.83 214.794C1713.11 218.666 1705.12 220.601 1694.85 220.601H1669.09Z" fill="white"/>
</g>
</g>
<defs>
<clipPath id="clip0_173_27">
<rect width="874" height="221" fill="white"/>
</clipPath>
<clipPath id="clip1_173_27">
<rect width="874.434" height="220.602" fill="white" transform="translate(-0.150391)"/>
</clipPath>
<clipPath id="clip2_173_27">
<rect width="874" height="221" fill="white" transform="translate(910)"/>
</clipPath>
<clipPath id="clip3_173_27">
<rect width="874.434" height="220.602" fill="white" transform="translate(909.85)"/>
</clipPath>
</defs>
</svg>
