<svg width="96" height="24" viewBox="0 0 96 24" fill="none" xmlns="http://www.w3.org/2000/svg">
<g clip-path="url(#clip0_11_222)">
<path d="M2.64542 20.0169C1.94952 20.0169 1.45506 19.6506 1.16205 18.9181C0.887349 18.1856 0.75 17.0135 0.75 15.4019C0.75 13.0212 1.0888 10.7595 1.76639 8.61687C1.9312 8.08576 2.19674 7.70118 2.56301 7.46313C2.94759 7.20674 3.47868 7.07855 4.15627 7.07855C4.52253 7.07855 4.77891 7.12433 4.92542 7.2159C5.07193 7.30749 5.14518 7.48142 5.14518 7.73783C5.14518 8.03082 5.00783 8.69009 4.73313 9.71566C4.55 10.4482 4.40349 11.0892 4.29361 11.6386C4.18374 12.1697 4.09217 12.838 4.01892 13.6439C4.51337 12.2154 5.0994 11.0067 5.77699 10.0178C6.47289 9.02891 7.17795 8.29641 7.89217 7.82024C8.62468 7.32578 9.31142 7.07855 9.95241 7.07855C10.5934 7.07855 11.042 7.22506 11.2984 7.51807C11.5731 7.81106 11.7105 8.25976 11.7105 8.86409C11.7105 9.45014 11.5365 10.5123 11.1886 12.0506C11.042 12.7099 10.9413 13.2043 10.8864 13.534C11.8021 11.2814 12.8185 9.64243 13.9355 8.61687C15.0526 7.5913 16.0965 7.07855 17.0671 7.07855C18.2575 7.07855 18.8527 7.67371 18.8527 8.86409C18.8527 9.57831 18.6512 10.8694 18.2483 12.7373C17.9004 14.3306 17.7264 15.3836 17.7264 15.8964C17.7264 16.6289 17.9919 16.9952 18.523 16.9952C18.8893 16.9952 19.3196 16.7754 19.8141 16.3359C20.3268 15.8781 21.0045 15.1455 21.8469 14.1383C22.0666 13.8819 22.3139 13.7537 22.5886 13.7537C22.8266 13.7537 23.0098 13.8636 23.138 14.0834C23.2845 14.3031 23.3577 14.6053 23.3577 14.9899C23.3577 15.7224 23.1837 16.2901 22.8358 16.693C22.0483 17.6636 21.1968 18.4603 20.2811 19.0829C19.3838 19.7055 18.3582 20.0169 17.2045 20.0169C16.2705 20.0169 15.5654 19.7513 15.0893 19.2202C14.6131 18.6708 14.3751 17.8834 14.3751 16.8578C14.3751 16.3451 14.5032 15.4294 14.7596 14.1108C14.9977 12.9571 15.1167 12.1605 15.1167 11.721C15.1167 11.428 15.016 11.2814 14.8146 11.2814C14.5765 11.2814 14.2377 11.5928 13.7982 12.2154C13.3587 12.8198 12.9192 13.6256 12.4796 14.6328C12.0401 15.64 11.683 16.7022 11.4083 17.8193C11.2068 18.6983 10.9688 19.2844 10.6941 19.5773C10.4377 19.8703 10.0165 20.0169 9.43048 20.0169C8.82615 20.0169 8.36834 19.733 8.05699 19.1653C7.76398 18.5793 7.61747 17.8742 7.61747 17.0501C7.61747 16.3542 7.70904 15.347 7.89217 14.0284C8.0387 12.8564 8.11193 12.0873 8.11193 11.721C8.11193 11.428 8.01123 11.2814 7.80976 11.2814C7.53506 11.2814 7.18711 11.6111 6.7659 12.2704C6.3447 12.9296 5.93265 13.772 5.52976 14.7976C5.14518 15.8232 4.83385 16.8304 4.59578 17.8193C4.39434 18.68 4.15627 19.266 3.88157 19.5773C3.62518 19.8703 3.21313 20.0169 2.64542 20.0169ZM30.1466 14.5778C30.3847 14.5778 30.5678 14.6877 30.696 14.9075C30.8425 15.1272 30.9158 15.4294 30.9158 15.814C30.9158 16.4733 30.7601 17.0409 30.4488 17.5171C29.936 18.3046 29.2585 18.9181 28.416 19.3576C27.5919 19.7971 26.603 20.0169 25.4493 20.0169C23.6912 20.0169 22.3269 19.4949 21.3562 18.4511C20.3857 17.3889 19.9003 15.9605 19.9003 14.1658C19.9003 12.9022 20.1659 11.7301 20.697 10.6496C21.2281 9.55084 21.9606 8.68099 22.8946 8.04C23.8469 7.39901 24.9182 7.07855 26.1085 7.07855C27.1707 7.07855 28.0223 7.39901 28.6632 8.04C29.3042 8.66262 29.6247 9.51419 29.6247 10.5947C29.6247 11.8583 29.1669 12.9479 28.2512 13.8636C27.3539 14.7609 25.8155 15.4752 23.6362 16.0063C24.0758 16.8486 24.8174 17.2699 25.8613 17.2699C26.6122 17.2699 27.2257 17.0959 27.7018 16.7479C28.1962 16.4 28.764 15.814 29.4049 14.9899C29.6247 14.7152 29.8719 14.5778 30.1466 14.5778ZM25.6415 9.7706C24.964 9.7706 24.3871 10.1644 23.9109 10.9518C23.4531 11.7393 23.2242 12.6916 23.2242 13.8087V13.8636C24.3047 13.6072 25.1563 13.2226 25.7789 12.7099C26.4016 12.1971 26.7129 11.6019 26.7129 10.9243C26.7129 10.5764 26.6122 10.3017 26.4107 10.1002C26.2276 9.88048 25.9712 9.7706 25.6415 9.7706Z" fill="#61F453"/>
<path d="M31.4961 19.8795V0.375904H38.2262C41.3944 0.375904 43.8301 1.22747 45.5332 2.9306C47.2363 4.61543 48.0879 7.02362 48.0879 10.1552C48.0879 13.2685 47.2455 15.6674 45.5607 17.3523C43.8942 19.0371 41.5043 19.8795 38.391 19.8795H31.4961ZM35.6715 16.3634H38.2262C40.1125 16.3634 41.5043 15.8597 42.4016 14.8525C43.3173 13.827 43.7751 12.2521 43.7751 10.1277C43.7751 8.00335 43.3173 6.43759 42.4016 5.43036C41.5043 4.40482 40.1125 3.89205 38.2262 3.89205H35.6715V16.3634ZM49.7938 19.8795V5.15566H53.9143V19.8795H49.7938ZM49.7114 3.34265V0.0462646H53.9692V3.34265H49.7114ZM60.7951 20.2092C59.2751 20.2092 58.0298 19.8612 57.0592 19.1653C56.1069 18.4511 55.6308 17.4622 55.6308 16.1986C55.6308 14.8983 56.0336 13.9003 56.8394 13.2043C57.6635 12.4901 58.8722 11.9682 60.4655 11.6386L65.2178 10.7046C65.2178 9.75231 64.998 9.0381 64.5585 8.56193C64.1372 8.06747 63.5237 7.82024 62.718 7.82024C61.9305 7.82024 61.317 8.00335 60.8775 8.36964C60.438 8.71757 60.1541 9.2395 60.0259 9.93542L55.878 9.74313C56.1527 8.13159 56.876 6.91374 58.0481 6.08964C59.2384 5.24723 60.7951 4.82603 62.718 4.82603C64.9156 4.82603 66.5638 5.34795 67.6626 6.39181C68.7797 7.43566 69.3382 8.9648 69.3382 10.9793V16.0063C69.3382 16.4275 69.4023 16.7113 69.5305 16.8578C69.677 16.986 69.8876 17.0501 70.1623 17.0501H70.5744V19.8795C70.4461 19.9162 70.2356 19.9527 69.9426 19.9894C69.6679 20.026 69.3932 20.0443 69.1185 20.0443C68.5324 20.0443 67.983 19.9436 67.4703 19.7422C66.9758 19.5407 66.5729 19.202 66.2616 18.7258C65.9503 18.2313 65.7946 17.5354 65.7946 16.6381L66.1517 16.9128C65.9685 17.5721 65.6389 18.1489 65.1628 18.6434C64.7049 19.1378 64.1006 19.5224 63.3498 19.7971C62.6172 20.0718 61.7657 20.2092 60.7951 20.2092ZM61.784 17.3798C62.4616 17.3798 63.0567 17.2516 63.5696 16.9952C64.0823 16.7205 64.4852 16.3267 64.7782 15.814C65.0712 15.3012 65.2178 14.6969 65.2178 14.001V13.2867L61.8664 14.001C61.2072 14.1291 60.7035 14.3489 60.3556 14.6602C60.0259 14.9532 59.8611 15.3378 59.8611 15.814C59.8611 16.3084 60.0259 16.693 60.3556 16.9677C60.6852 17.2424 61.1613 17.3798 61.784 17.3798ZM71.9135 19.8795V5.15566H75.8141L75.9515 9.44097L75.6493 9.35856C75.8871 7.87518 76.3086 6.80386 76.9129 6.14458C77.5172 5.4853 78.3507 5.15566 79.4127 5.15566H80.7587V8.56193H79.4127C78.6435 8.56193 78.0117 8.66263 77.5172 8.8641C77.0228 9.06557 76.6476 9.38603 76.391 9.82554C76.1532 10.2651 76.0339 10.8602 76.0339 11.6111V19.8795H71.9135ZM83.3503 24V20.9234H85.3006C85.777 20.9234 86.1247 20.8501 86.3445 20.7036C86.583 20.5754 86.7659 20.3373 86.8939 19.9894L87.196 19.1378H86.0698L80.9054 5.15566H85.1083L88.4871 15.292L91.6462 5.15566H95.8491L90.1903 21.2805C89.8606 22.2511 89.385 22.947 88.7618 23.3682C88.1394 23.7894 87.2698 24 86.1522 24H83.3503Z" fill="#F2F2F2"/>
</g>
<defs>
<clipPath id="clip0_11_222">
<rect width="95.1325" height="24" fill="white" transform="translate(0.75)"/>
</clipPath>
</defs>
</svg>
