<svg width="268" height="67" viewBox="0 0 268 67" fill="none" xmlns="http://www.w3.org/2000/svg">
<path d="M3 63.0798C58.5 59.2465 188.5 53.8798 264.5 63.0798" stroke="#61F453" stroke-width="6" stroke-linecap="round" stroke-linejoin="round"/>
<g clip-path="url(#clip0_172_10)">
<path d="M7.61522 47.32C5.99389 47.32 4.84189 46.4667 4.15922 44.76C3.51922 43.0533 3.19922 40.3227 3.19922 36.568C3.19922 31.0213 3.98855 25.752 5.56722 20.76C5.95122 19.5227 6.56989 18.6267 7.42322 18.072C8.31922 17.4747 9.55655 17.176 11.1352 17.176C11.9885 17.176 12.5859 17.2827 12.9272 17.496C13.2685 17.7093 13.4392 18.1147 13.4392 18.712C13.4392 19.3947 13.1192 20.9307 12.4792 23.32C12.0525 25.0267 11.7112 26.52 11.4552 27.8C11.1992 29.0373 10.9859 30.5947 10.8152 32.472C11.9672 29.144 13.3325 26.328 14.9112 24.024C16.5325 21.72 18.1752 20.0133 19.8392 18.904C21.5459 17.752 23.1459 17.176 24.6392 17.176C26.1325 17.176 27.1779 17.5173 27.7752 18.2C28.4152 18.8827 28.7352 19.928 28.7352 21.336C28.7352 22.7013 28.3299 25.176 27.5192 28.76C27.1779 30.296 26.9432 31.448 26.8152 32.216C28.9485 26.968 31.3165 23.1493 33.9192 20.76C36.5219 18.3707 38.9539 17.176 41.2152 17.176C43.9885 17.176 45.3752 18.5627 45.3752 21.336C45.3752 23 44.9059 26.008 43.9672 30.36C43.1565 34.072 42.7512 36.5253 42.7512 37.72C42.7512 39.4267 43.3699 40.28 44.6072 40.28C45.4605 40.28 46.4632 39.768 47.6152 38.744C48.8099 37.6773 50.3885 35.9707 52.3512 33.624C52.8632 33.0267 53.4392 32.728 54.0792 32.728C54.6339 32.728 55.0605 32.984 55.3592 33.496C55.7005 34.008 55.8712 34.712 55.8712 35.608C55.8712 37.3147 55.4659 38.6373 54.6552 39.576C52.8205 41.8373 50.8365 43.6933 48.7032 45.144C46.6125 46.5947 44.2232 47.32 41.5352 47.32C39.3592 47.32 37.7165 46.7013 36.6072 45.464C35.4979 44.184 34.9432 42.3493 34.9432 39.96C34.9432 38.7653 35.2419 36.632 35.8392 33.56C36.3939 30.872 36.6712 29.016 36.6712 27.992C36.6712 27.3093 36.4365 26.968 35.9672 26.968C35.4125 26.968 34.6232 27.6933 33.5992 29.144C32.5752 30.552 31.5512 32.4293 30.5272 34.776C29.5032 37.1227 28.6712 39.5973 28.0312 42.2C27.5619 44.248 27.0072 45.6133 26.3672 46.296C25.7699 46.9787 24.7885 47.32 23.4232 47.32C22.0152 47.32 20.9485 46.6587 20.2232 45.336C19.5405 43.9707 19.1992 42.328 19.1992 40.408C19.1992 38.7867 19.4125 36.44 19.8392 33.368C20.1805 30.6373 20.3512 28.8453 20.3512 27.992C20.3512 27.3093 20.1165 26.968 19.6472 26.968C19.0072 26.968 18.1965 27.736 17.2152 29.272C16.2339 30.808 15.2739 32.7707 14.3352 35.16C13.4392 37.5493 12.7139 39.896 12.1592 42.2C11.6899 44.2053 11.1352 45.5707 10.4952 46.296C9.89789 46.9787 8.93789 47.32 7.61522 47.32ZM71.6882 34.648C72.2429 34.648 72.6695 34.904 72.9682 35.416C73.3095 35.928 73.4802 36.632 73.4802 37.528C73.4802 39.064 73.1175 40.3867 72.3922 41.496C71.1975 43.3307 69.6189 44.76 67.6562 45.784C65.7362 46.808 63.4322 47.32 60.7442 47.32C56.6482 47.32 53.4695 46.104 51.2082 43.672C48.9469 41.1973 47.8162 37.8693 47.8162 33.688C47.8162 30.744 48.4349 28.0133 49.6722 25.496C50.9095 22.936 52.6162 20.9093 54.7922 19.416C57.0109 17.9227 59.5069 17.176 62.2802 17.176C64.7549 17.176 66.7389 17.9227 68.2322 19.416C69.7255 20.8667 70.4722 22.8507 70.4722 25.368C70.4722 28.312 69.4055 30.8507 67.2722 32.984C65.1815 35.0747 61.5975 36.7387 56.5202 37.976C57.5442 39.9387 59.2722 40.92 61.7042 40.92C63.4535 40.92 64.8829 40.5147 65.9922 39.704C67.1442 38.8933 68.4669 37.528 69.9602 35.608C70.4722 34.968 71.0482 34.648 71.6882 34.648ZM61.1922 23.448C59.6135 23.448 58.2695 24.3653 57.1602 26.2C56.0935 28.0347 55.5602 30.2533 55.5602 32.856V32.984C58.0775 32.3867 60.0615 31.4907 61.5122 30.296C62.9629 29.1013 63.6882 27.7147 63.6882 26.136C63.6882 25.3253 63.4535 24.6853 62.9842 24.216C62.5575 23.704 61.9602 23.448 61.1922 23.448Z" fill="#61F453"/>
<path d="M75.2168 47V1.56H90.3208C97.5741 1.56 103.142 3.544 107.025 7.512C110.95 11.4373 112.913 17.048 112.913 24.344C112.913 31.5973 110.993 37.1867 107.153 41.112C103.313 45.0373 97.8301 47 90.7048 47H75.2168ZM83.5368 39.768H90.3208C95.0568 39.768 98.5768 38.488 100.881 35.928C103.185 33.368 104.337 29.5067 104.337 24.344C104.337 19.096 103.185 15.192 100.881 12.632C98.5768 10.072 95.0568 8.792 90.3208 8.792H83.5368V39.768ZM117.219 47V12.824H125.411V47H117.219ZM117.091 8.28V0.983994H125.603V8.28H117.091ZM141.782 47.768C138.197 47.768 135.317 46.9573 133.141 45.336C130.965 43.672 129.877 41.368 129.877 38.424C129.877 35.48 130.795 33.176 132.629 31.512C134.464 29.848 137.259 28.6533 141.014 27.928L152.342 25.688C152.342 23.256 151.787 21.4427 150.678 20.248C149.568 19.0107 147.926 18.392 145.749 18.392C143.787 18.392 142.23 18.8613 141.078 19.8C139.968 20.696 139.2 21.9973 138.773 23.704L130.453 23.32C131.136 19.6933 132.8 16.92 135.445 15C138.091 13.0373 141.526 12.056 145.749 12.056C150.614 12.056 154.283 13.2933 156.758 15.768C159.275 18.2 160.534 21.6987 160.534 26.264V38.68C160.534 39.576 160.683 40.1947 160.982 40.536C161.323 40.8773 161.814 41.048 162.454 41.048H163.541V47C163.286 47.0853 162.859 47.1493 162.262 47.192C161.707 47.2347 161.131 47.256 160.534 47.256C159.126 47.256 157.867 47.0427 156.758 46.616C155.648 46.1467 154.795 45.3573 154.198 44.248C153.6 43.096 153.302 41.5387 153.302 39.576L154.006 40.088C153.664 41.5813 152.918 42.9253 151.766 44.12C150.656 45.272 149.248 46.168 147.542 46.808C145.835 47.448 143.915 47.768 141.782 47.768ZM143.446 41.816C145.28 41.816 146.859 41.4533 148.182 40.728C149.504 40.0027 150.528 39 151.254 37.72C151.979 36.44 152.342 34.9253 152.342 33.176V31.256L143.509 33.048C141.675 33.432 140.352 34.008 139.542 34.776C138.774 35.5013 138.39 36.4613 138.39 37.656C138.39 38.9787 138.816 40.0027 139.669 40.728C140.566 41.4533 141.824 41.816 143.446 41.816ZM166.941 47V12.824H174.621L174.941 22.296L174.237 22.168C174.749 18.8827 175.709 16.5147 177.117 15.064C178.568 13.5707 180.531 12.824 183.005 12.824H186.141V19.864H182.941C181.192 19.864 179.741 20.12 178.589 20.632C177.437 21.144 176.563 21.9547 175.965 23.064C175.411 24.1307 175.133 25.5387 175.133 27.288V47H166.941ZM192.141 56.6V50.264H196.493C197.602 50.264 198.413 50.0933 198.925 49.752C199.48 49.4107 199.906 48.8347 200.205 48.024L201.165 45.656H198.797L186.573 12.824H195.085L203.661 37.976L211.853 12.824H220.365L206.989 50.584C206.221 52.7173 205.133 54.2533 203.725 55.192C202.36 56.1307 200.44 56.6 197.965 56.6H192.141ZM223.137 20.632L226.465 10.52H222.561V1.56H231.905V9.496L227.681 20.632H223.137ZM251.132 47.768C247.761 47.768 244.924 47.2773 242.62 46.296C240.359 45.3147 238.609 43.9493 237.372 42.2C236.135 40.4507 235.431 38.4667 235.26 36.248L243.644 35.864C243.943 37.656 244.689 39.0427 245.884 40.024C247.079 41.0053 248.849 41.496 251.196 41.496C253.116 41.496 254.609 41.1973 255.676 40.6C256.785 39.96 257.34 38.9787 257.34 37.656C257.34 36.888 257.148 36.248 256.764 35.736C256.38 35.224 255.655 34.776 254.588 34.392C253.521 34.008 251.943 33.624 249.852 33.24C246.353 32.6427 243.601 31.9173 241.596 31.064C239.591 30.168 238.161 29.0587 237.308 27.736C236.497 26.4133 236.092 24.7707 236.092 22.808C236.092 19.608 237.308 17.0267 239.74 15.064C242.215 13.0587 245.82 12.056 250.556 12.056C253.628 12.056 256.209 12.568 258.3 13.592C260.391 14.5733 262.012 15.9387 263.164 17.688C264.359 19.3947 265.105 21.3573 265.404 23.576L257.148 23.96C256.935 22.808 256.551 21.8053 255.996 20.952C255.441 20.0987 254.695 19.4587 253.756 19.032C252.817 18.5627 251.708 18.328 250.428 18.328C248.508 18.328 247.057 18.712 246.076 19.48C245.095 20.248 244.604 21.272 244.604 22.552C244.604 23.448 244.817 24.1947 245.244 24.792C245.713 25.3893 246.46 25.88 247.484 26.264C248.508 26.6053 249.873 26.9253 251.58 27.224C255.164 27.7787 257.98 28.504 260.028 29.4C262.119 30.2533 263.591 31.3627 264.444 32.728C265.34 34.0507 265.788 35.6507 265.788 37.528C265.788 39.704 265.169 41.56 263.932 43.096C262.737 44.632 261.031 45.8053 258.812 46.616C256.636 47.384 254.076 47.768 251.132 47.768Z" fill="#F2F2F2"/>
</g>
<defs>
<clipPath id="clip0_172_10">
<rect width="263" height="57" fill="white" transform="translate(3)"/>
</clipPath>
</defs>
</svg>
