<svg width="306" height="266" viewBox="0 0 306 266" fill="none" xmlns="http://www.w3.org/2000/svg">
<g clip-path="url(#clip0_173_39)">
<rect x="44.5352" width="263.973" height="320" rx="8.61953" transform="rotate(8 44.5352 0)" fill="#40403E"/>
<rect x="44.5352" width="263.973" height="320" rx="8.61953" transform="rotate(8 44.5352 0)" fill="url(#paint0_radial_173_39)"/>
<path d="M-25.6035 307.948C-3.73625 250.416 50.288 152.528 91.4474 221.24C142.897 307.129 166.789 297.592 201.047 286.503C235.305 275.414 234.318 178.134 288.124 172.371C341.93 166.608 373.477 177.489 392.913 196.984" stroke="#61F453" stroke-width="60" stroke-linecap="round" stroke-linejoin="round"/>
<path d="M57.9169 64.2L58.8521 57.5454L54.3943 46.4975L57.8642 46.9851L60.8482 54.7238L65.826 48.1041L69.2959 48.5918L61.9655 57.983L61.0303 64.6376L57.9169 64.2ZM71.518 66.4023C70.2663 66.2264 69.203 65.8023 68.328 65.13C67.4711 64.4441 66.8514 63.5653 66.4688 62.4936C66.1021 61.4242 66.0123 60.224 66.1993 58.8931C66.3886 57.5463 66.8058 56.4174 67.4508 55.5063C68.114 54.5816 68.9508 53.9155 69.9614 53.5082C70.9899 53.0873 72.1301 52.9648 73.3818 53.1407C74.6335 53.3166 75.6878 53.7475 76.5447 54.4334C77.4038 55.1035 78.0167 55.9733 78.3834 57.0427C78.7682 58.0986 78.866 59.2999 78.6767 60.6466C78.4896 61.9776 78.0645 63.1054 77.4014 64.0301C76.7541 64.957 75.9241 65.6321 74.9113 66.0552C73.9008 66.4626 72.7697 66.5783 71.518 66.4023ZM71.8654 63.9306C72.8477 64.0687 73.6515 63.8101 74.2768 63.1547C74.918 62.5016 75.3309 61.5175 75.5158 60.2024C75.6984 58.9032 75.5715 57.8513 75.1352 57.0467C74.717 56.2286 74.0168 55.7504 73.0344 55.6124C72.0521 55.4743 71.2392 55.7398 70.5959 56.4088C69.9547 57.0619 69.5428 58.0381 69.3603 59.3373C69.1754 60.6524 69.3012 61.7122 69.7374 62.5167C70.1737 63.3213 70.883 63.7926 71.8654 63.9306ZM83.5622 68.095C82.2788 67.9147 81.3158 67.3512 80.6733 66.4045C80.0489 65.4443 79.8425 64.2116 80.054 62.7064L81.203 54.5307L84.2451 54.9582L83.203 62.3734C83.0538 63.4349 83.1179 64.2437 83.3952 64.7997C83.6906 65.3421 84.2027 65.6645 84.9315 65.767C85.7554 65.8828 86.427 65.7025 86.9464 65.2261C87.4838 64.7361 87.826 63.9683 87.973 62.9226L88.9984 55.6263L92.0405 56.0538L90.2569 68.7451L87.4762 68.3543L87.8959 64.8506L88.2595 65.0229C87.9001 66.2003 87.3205 67.0479 86.5207 67.5656C85.7208 68.0834 84.7347 68.2598 83.5622 68.095ZM92.8873 69.1148L94.671 56.4235L97.5229 56.8243L97.1474 60.3585L96.8927 60.2742C97.2543 59.0809 97.7344 58.2516 98.3329 57.7864C98.9496 57.3076 99.7174 57.1327 100.636 57.2619L101.801 57.4256L101.433 60.0399L100.245 59.8729C99.5955 59.7816 99.0435 59.8009 98.589 59.9309C98.1344 60.0609 97.7673 60.3163 97.4876 60.6971C97.226 61.0643 97.0495 61.5726 96.9582 62.2223L95.9294 69.5423L92.8873 69.1148ZM109.465 71.4446L107.422 58.2155L110.535 58.6531L111.708 68.2456L115.55 59.3579L118.212 59.732L119.479 69.3378L123.25 60.4401L126.364 60.8776L120.754 73.0311L117.616 72.5902L116.293 63.7278L112.602 71.8855L109.465 71.4446ZM130.804 74.7344C129.536 74.5562 128.473 74.1321 127.614 73.462C126.757 72.7761 126.145 71.8984 125.778 70.829C125.411 69.7595 125.322 68.5594 125.509 67.2284C125.696 65.8975 126.112 64.7765 126.757 63.8654C127.404 62.9385 128.226 62.2623 129.223 61.8369C130.236 61.4138 131.36 61.289 132.596 61.4627C133.8 61.6319 134.816 62.0494 135.643 62.715C136.487 63.3829 137.083 64.2583 137.431 65.3414C137.78 66.4244 137.854 67.679 137.654 69.105L137.557 69.7942L128.549 68.5283C128.457 69.6463 128.64 70.5283 129.098 71.1744C129.575 71.8069 130.265 72.1866 131.168 72.3136C131.849 72.4093 132.433 72.3378 132.919 72.0991C133.423 71.8468 133.801 71.4556 134.053 70.9256L137.14 71.5533C136.618 72.7402 135.791 73.6177 134.661 74.186C133.547 74.7564 132.261 74.9393 130.804 74.7344ZM128.837 66.4844L134.707 67.3094C134.788 66.2706 134.602 65.4689 134.148 64.9042C133.697 64.3237 133.067 63.9767 132.259 63.8631C131.451 63.7495 130.741 63.9163 130.128 64.3635C129.532 64.8129 129.101 65.5198 128.837 66.4844ZM143.9 76.575C142.633 76.3969 141.569 75.9727 140.71 75.3027C139.853 74.6167 139.241 73.739 138.875 72.6696C138.508 71.6001 138.418 70.4 138.605 69.069C138.792 67.7381 139.208 66.6171 139.853 65.706C140.501 64.7791 141.323 64.1029 142.32 63.6775C143.332 63.2544 144.457 63.1296 145.693 63.3033C146.897 63.4725 147.913 63.89 148.74 64.5556C149.583 65.2235 150.179 66.0989 150.528 67.182C150.877 68.2651 150.951 69.5196 150.75 70.9456L150.653 71.6348L141.646 70.3689C141.553 71.4869 141.736 72.3689 142.195 73.015C142.672 73.6475 143.361 74.0272 144.265 74.1542C144.946 74.2499 145.53 74.1784 146.015 73.9397C146.52 73.6874 146.898 73.2963 147.15 72.7662L150.237 73.3939C149.714 74.5808 148.888 75.4583 147.758 76.0266C146.644 76.5971 145.358 76.7799 143.9 76.575ZM141.933 68.325L147.803 69.15C147.885 68.1112 147.699 67.3095 147.245 66.7448C146.793 66.1643 146.163 65.8173 145.355 65.7037C144.547 65.5901 143.837 65.7569 143.225 66.2041C142.629 66.6535 142.198 67.3604 141.933 68.325ZM151.547 77.3588L153.918 60.4847L156.96 60.9122L155.568 70.8228L161.577 65.8266L165.332 66.3543L159.624 70.9324L163.715 79.069L160.293 78.588L157.374 72.4581L155.08 74.2927L154.589 77.7864L151.547 77.3588ZM167.732 79.6335C166.813 79.5043 166.11 79.1631 165.622 78.6099C165.134 78.0566 164.964 77.2571 165.111 76.2114L167.061 62.3318L170.103 62.7593L168.196 76.33C168.152 76.6469 168.197 76.8957 168.334 77.0764C168.486 77.2593 168.712 77.3719 169.013 77.4142L169.94 77.5445L169.609 79.8974L167.732 79.6335ZM170.692 83.6849L171.023 81.332L172.639 81.5591C173.051 81.617 173.361 81.596 173.569 81.4959C173.792 81.3981 173.981 81.2065 174.134 80.921L174.614 80.0918L173.735 79.9682L170.909 67.138L174.07 67.5823L175.942 77.3701L180.297 68.4574L183.458 68.9016L176.52 82.2257C176.123 82.9779 175.639 83.4915 175.067 83.7666C174.511 84.0439 173.774 84.118 172.855 83.9888L170.692 83.6849ZM50.2343 89.3758L52.018 76.6845L54.8699 77.0854L54.4944 80.6195L54.2397 80.5352C54.6013 79.3419 55.0813 78.5127 55.6799 78.0474C56.2966 77.5686 57.0644 77.3938 57.9833 77.5229L59.1479 77.6866L58.7805 80.3009L57.5922 80.1339C56.9425 80.0426 56.3905 80.0619 55.936 80.1919C55.4814 80.322 55.1143 80.5773 54.8346 80.9581C54.573 81.3253 54.3965 81.8337 54.3052 82.4833L53.2764 89.8033L50.2343 89.3758ZM63.7444 91.5654C62.4769 91.3872 61.4136 90.9631 60.5545 90.293C59.6976 89.6071 59.0858 88.7294 58.7191 87.66C58.3523 86.5905 58.2625 85.3903 58.4495 84.0594C58.6366 82.7285 59.0527 81.6075 59.6977 80.6964C60.345 79.7695 61.1671 79.0933 62.164 78.6679C63.1768 78.2447 64.3011 78.12 65.537 78.2937C66.7411 78.4629 67.7569 78.8803 68.5843 79.546C69.4276 80.2138 70.0235 81.0893 70.3722 82.1724C70.7209 83.2554 70.795 84.5099 70.5946 85.9359L70.4977 86.6252L61.4902 85.3592C61.3977 86.4772 61.5808 87.3593 62.0393 88.0054C62.5159 88.6379 63.2058 89.0176 64.1089 89.1445C64.7902 89.2403 65.3738 89.1688 65.8598 88.9301C66.3638 88.6778 66.7419 88.2866 66.9942 87.7566L70.0808 88.3843C69.5586 89.5711 68.7324 90.4487 67.6023 91.0169C66.4881 91.5874 65.2021 91.7702 63.7444 91.5654ZM61.7775 83.3153L67.6478 84.1403C67.7292 83.1016 67.5429 82.2998 67.0891 81.7352C66.6375 81.1547 66.0077 80.8076 65.1996 80.6941C64.3915 80.5805 63.6814 80.7473 63.0692 81.1945C62.4729 81.6438 62.0423 82.3508 61.7775 83.3153ZM71.3911 92.3492L73.1747 79.6579L75.9316 80.0454L75.5891 83.1721L75.324 82.9895C75.5623 82.3282 75.8892 81.7844 76.3046 81.3581C76.738 80.9181 77.2261 80.607 77.7687 80.4247C78.3294 80.2289 78.9188 80.1744 79.5367 80.2612C80.6141 80.4126 81.4421 80.8441 82.0207 81.5555C82.6016 82.2511 82.9045 83.142 82.9296 84.228L82.5256 84.1712C82.7729 83.4466 83.1053 82.8632 83.5229 82.421C83.9427 81.963 84.433 81.636 84.9937 81.4402C85.5703 81.2465 86.1913 81.1964 86.8567 81.29C87.7282 81.4124 88.4541 81.7083 89.0344 82.1777C89.6169 82.6312 90.0245 83.2378 90.257 83.9975C90.5054 84.7595 90.5561 85.6634 90.4091 86.7091L89.2634 94.861L86.2213 94.4335L87.2568 87.0659C87.4038 86.0201 87.3318 85.2102 87.0408 84.6362C86.7657 84.0643 86.2638 83.7272 85.5349 83.6247C85.0438 83.5557 84.6061 83.6235 84.2219 83.828C83.8377 84.0325 83.516 84.367 83.2568 84.8314C83.0157 85.2823 82.8473 85.8483 82.7516 86.5296L81.7295 93.8022L78.9013 93.4047L79.9234 86.1322C80.0703 85.0864 80.0243 84.264 79.7854 83.6649C79.5464 83.0659 79.0388 82.7118 78.2624 82.6026C77.7712 82.5336 77.3336 82.6014 76.9494 82.8059C76.581 83.0126 76.2593 83.3471 75.9843 83.8093C75.7274 84.2579 75.551 84.8229 75.4553 85.5042L74.4332 92.7767L71.3911 92.3492ZM91.6594 95.1977L93.443 82.5064L96.4851 82.934L94.7015 95.6253L91.6594 95.1977ZM93.6327 80.8124L94.0134 78.103L97.1744 78.5472L96.7936 81.2566L93.6327 80.8124ZM97.5147 96.0206L99.2983 83.3294L102.055 83.7168L101.673 87.2985L101.337 87.1058C101.588 86.2363 101.95 85.5601 102.421 85.077C102.893 84.594 103.432 84.2658 104.038 84.0924C104.644 83.9191 105.288 83.8803 105.969 83.9761C106.904 84.1074 107.659 84.4236 108.235 84.9247C108.827 85.4279 109.238 86.0673 109.468 86.8429C109.701 87.6027 109.75 88.4579 109.617 89.4086L108.471 97.5604L105.429 97.1329L106.438 89.9554C106.538 89.2424 106.551 88.6303 106.478 88.1191C106.404 87.6079 106.219 87.2022 105.922 86.9019C105.643 86.588 105.234 86.3932 104.695 86.3175C103.887 86.2039 103.197 86.3978 102.626 86.8992C102.07 87.4028 101.717 88.1933 101.565 89.2707L100.557 96.4482L97.5147 96.0206ZM115.249 98.8039C114.172 98.6525 113.275 98.2517 112.558 97.6017C111.858 96.9539 111.364 96.1008 111.076 95.0425C110.789 93.9842 110.74 92.7817 110.929 91.4349C111.118 90.0881 111.497 88.9457 112.065 88.0076C112.633 87.0696 113.351 86.3869 114.219 85.9595C115.087 85.5321 116.052 85.393 117.113 85.5422C118 85.6669 118.751 85.9582 119.365 86.4162C119.995 86.8764 120.438 87.4637 120.693 88.1781L121.535 82.189L124.577 82.6165L122.205 99.4907L119.306 99.0832L119.498 97.1956C119.054 97.8279 118.457 98.2852 117.706 98.5675C116.955 98.8498 116.137 98.9286 115.249 98.8039ZM116.524 96.4625C117.157 96.5515 117.71 96.4677 118.183 96.2109C118.671 95.9564 119.069 95.5357 119.378 94.949C119.705 94.3486 119.93 93.6048 120.055 92.7175C120.182 91.8144 120.17 91.0372 120.019 90.3858C119.884 89.7367 119.617 89.2226 119.218 88.8433C118.835 88.4663 118.326 88.2333 117.693 88.1442C116.774 88.015 115.985 88.2838 115.325 88.9506C114.684 89.6037 114.272 90.5799 114.09 91.8791C113.912 93.1467 114.038 94.1986 114.47 95.0348C114.92 95.8574 115.605 96.3333 116.524 96.4625ZM130.04 100.883C128.772 100.704 127.709 100.28 126.85 99.6102C125.993 98.9243 125.381 98.0466 125.014 96.9772C124.648 95.9077 124.558 94.7075 124.745 93.3766C124.932 92.0457 125.348 90.9247 125.993 90.0136C126.64 89.0867 127.462 88.4105 128.459 87.9851C129.472 87.5619 130.596 87.4372 131.832 87.6109C133.036 87.7801 134.052 88.1975 134.88 88.8632C135.723 89.531 136.319 90.4065 136.668 91.4896C137.016 92.5726 137.09 93.8271 136.89 95.2531L136.793 95.9424L127.786 94.6764C127.693 95.7945 127.876 96.6765 128.335 97.3226C128.811 97.9551 129.501 98.3348 130.404 98.4617C131.086 98.5575 131.669 98.486 132.155 98.2473C132.659 97.995 133.037 97.6038 133.29 97.0738L136.376 97.7015C135.854 98.8883 135.028 99.7659 133.898 100.334C132.783 100.905 131.497 101.087 130.04 100.883ZM128.073 92.6325L133.943 93.4575C134.025 92.4188 133.838 91.617 133.384 91.0524C132.933 90.4719 132.303 90.1249 131.495 90.0113C130.687 89.8977 129.977 90.0645 129.365 90.5117C128.768 90.961 128.338 91.668 128.073 92.6325ZM137.686 101.666L139.47 88.9751L142.322 89.3759L141.947 92.9101L141.692 92.8258C142.053 91.6325 142.533 90.8033 143.132 90.338C143.749 89.8592 144.516 89.6844 145.435 89.8135L146.6 89.9772L146.233 92.5915L145.044 92.4245C144.395 92.3332 143.843 92.3525 143.388 92.4825C142.934 92.6125 142.566 92.8679 142.287 93.2487C142.025 93.6159 141.849 94.1243 141.757 94.7739L140.729 102.094L137.686 101.666ZM152.933 103.809L154.787 90.6188C154.947 89.478 155.39 88.6273 156.115 88.0668C156.858 87.4926 157.895 87.299 159.226 87.4861L161.697 87.8335L161.367 90.1863L159.465 89.9191C158.974 89.8501 158.592 89.9256 158.319 90.1458C158.061 90.3681 157.898 90.7248 157.829 91.216L155.999 104.24L152.933 103.809ZM152.533 93.5496L152.863 91.1967L160.896 92.3257L160.566 94.6786L152.533 93.5496ZM165.6 105.88C164.348 105.704 163.285 105.28 162.41 104.608C161.553 103.922 160.933 103.043 160.551 101.971C160.184 100.902 160.094 99.7018 160.281 98.3709C160.471 97.0242 160.888 95.8952 161.533 94.9841C162.196 94.0594 163.033 93.3934 164.043 92.9861C165.072 92.5652 166.212 92.4426 167.464 92.6186C168.715 92.7945 169.77 93.2254 170.627 93.9113C171.486 94.5814 172.099 95.4512 172.465 96.5206C172.85 97.5764 172.948 98.7777 172.759 100.125C172.572 101.455 172.147 102.583 171.483 103.508C170.836 104.435 170.006 105.11 168.993 105.533C167.983 105.94 166.852 106.056 165.6 105.88ZM165.947 103.409C166.93 103.547 167.733 103.288 168.359 102.633C169 101.979 169.413 100.995 169.598 99.6803C169.78 98.381 169.653 97.3291 169.217 96.5246C168.799 95.7064 168.099 95.2283 167.116 95.0903C166.134 94.9522 165.321 95.2177 164.678 95.8866C164.037 96.5398 163.625 97.5159 163.442 98.8152C163.257 100.13 163.383 101.19 163.819 101.995C164.256 102.799 164.965 103.27 165.947 103.409ZM173.501 106.7L175.285 94.0086L178.137 94.4094L177.761 97.9435L177.507 97.8593C177.868 96.666 178.348 95.8367 178.947 95.3715C179.564 94.8927 180.331 94.7178 181.25 94.847L182.415 95.0106L182.047 97.6249L180.859 97.4579C180.21 97.3666 179.657 97.386 179.203 97.516C178.748 97.646 178.381 97.9014 178.102 98.2822C177.84 98.6493 177.664 99.1577 177.572 99.8073L176.543 107.127L173.501 106.7ZM194.198 109.899C193.31 109.775 192.561 109.475 191.949 109.002C191.353 108.53 190.92 107.928 190.651 107.196L190.316 109.063L187.417 108.656L189.788 91.7814L192.83 92.2089L191.989 98.1981C192.42 97.6608 192.988 97.2398 193.693 96.935C194.401 96.6143 195.19 96.5152 196.061 96.6377C197.155 96.7913 198.058 97.2011 198.773 97.867C199.505 98.5193 200.015 99.3746 200.303 100.433C200.608 101.478 200.666 102.673 200.477 104.02C200.288 105.367 199.901 106.508 199.317 107.444C198.751 108.366 198.025 109.048 197.139 109.489C196.272 109.916 195.291 110.053 194.198 109.899ZM193.856 107.331C194.727 107.453 195.476 107.187 196.101 106.531C196.728 105.86 197.133 104.875 197.316 103.576C197.501 102.261 197.383 101.202 196.963 100.4C196.558 99.5996 195.92 99.1384 195.049 99.0159C194.399 98.9246 193.813 99.0119 193.291 99.2778C192.787 99.5301 192.365 99.9474 192.025 100.53C191.7 101.114 191.475 101.85 191.351 102.737C191.23 103.593 191.245 104.354 191.393 105.022C191.56 105.675 191.85 106.201 192.262 106.598C192.675 106.995 193.206 107.239 193.856 107.331ZM206.683 111.654C205.415 111.476 204.352 111.052 203.493 110.382C202.636 109.696 202.024 108.818 201.657 107.749C201.291 106.679 201.201 105.479 201.388 104.148C201.575 102.817 201.991 101.696 202.636 100.785C203.283 99.8581 204.106 99.182 205.102 98.7566C206.115 98.3334 207.239 98.2087 208.475 98.3824C209.68 98.5516 210.695 98.969 211.523 99.6347C212.366 100.303 212.962 101.178 213.311 102.261C213.659 103.344 213.733 104.599 213.533 106.025L213.436 106.714L204.429 105.448C204.336 106.566 204.519 107.448 204.978 108.094C205.454 108.727 206.144 109.106 207.047 109.233C207.729 109.329 208.312 109.257 208.798 109.019C209.302 108.766 209.68 108.375 209.933 107.845L213.019 108.473C212.497 109.66 211.671 110.537 210.541 111.106C209.426 111.676 208.141 111.859 206.683 111.654ZM204.716 103.404L210.586 104.229C210.668 103.19 210.481 102.389 210.027 101.824C209.576 101.243 208.946 100.896 208.138 100.783C207.33 100.669 206.62 100.836 206.008 101.283C205.411 101.733 204.981 102.439 204.716 103.404ZM218.975 113.091C217.707 112.913 216.813 112.488 216.294 111.817C215.79 111.149 215.626 110.188 215.802 108.937L217.492 96.9109L220.534 97.3384L218.884 109.079C218.802 109.665 218.87 110.095 219.091 110.368C219.313 110.626 219.693 110.792 220.232 110.868L222.015 111.119L221.684 113.471L218.975 113.091ZM214.747 101.954L215.078 99.6011L223.468 100.78L223.137 103.133L214.747 101.954ZM227.15 114.24C225.883 114.062 224.989 113.637 224.469 112.966C223.965 112.298 223.801 111.337 223.977 110.086L225.668 98.0599L228.71 98.4874L227.06 110.228C226.977 110.814 227.046 111.244 227.266 111.517C227.488 111.775 227.869 111.941 228.408 112.017L230.19 112.268L229.86 114.62L227.15 114.24ZM222.923 103.103L223.254 100.75L231.643 101.929L231.313 104.282L222.923 103.103ZM236.636 115.864C235.368 115.686 234.305 115.261 233.446 114.591C232.589 113.905 231.977 113.028 231.611 111.958C231.244 110.889 231.154 109.689 231.341 108.358C231.528 107.027 231.944 105.906 232.589 104.995C233.237 104.068 234.059 103.392 235.056 102.966C236.068 102.543 237.193 102.418 238.428 102.592C239.633 102.761 240.648 103.179 241.476 103.844C242.319 104.512 242.915 105.388 243.264 106.471C243.612 107.554 243.686 108.808 243.486 110.234L243.389 110.923L234.382 109.658C234.289 110.776 234.472 111.658 234.931 112.304C235.407 112.936 236.097 113.316 237 113.443C237.682 113.539 238.265 113.467 238.751 113.228C239.255 112.976 239.633 112.585 239.886 112.055L242.972 112.683C242.45 113.869 241.624 114.747 240.494 115.315C239.38 115.886 238.094 116.069 236.636 115.864ZM234.669 107.614L240.539 108.439C240.621 107.4 240.434 106.598 239.981 106.034C239.529 105.453 238.899 105.106 238.091 104.992C237.283 104.879 236.573 105.046 235.961 105.493C235.364 105.942 234.934 106.649 234.669 107.614ZM244.283 116.648L246.066 103.956L248.918 104.357L248.543 107.891L248.288 107.807C248.65 106.614 249.13 105.784 249.728 105.319C250.345 104.84 251.113 104.665 252.032 104.795L253.196 104.958L252.829 107.573L251.64 107.406C250.991 107.314 250.439 107.334 249.984 107.464C249.53 107.594 249.163 107.849 248.883 108.23C248.621 108.597 248.445 109.105 248.353 109.755L247.325 117.075L244.283 116.648ZM46.6158 115.123L48.3995 102.432L51.1564 102.819L50.8139 105.946L50.5487 105.763C50.7871 105.102 51.1139 104.558 51.5293 104.132C51.9628 103.692 52.4508 103.381 52.9934 103.198C53.5542 103.002 54.1435 102.948 54.7614 103.035C55.8388 103.186 56.6668 103.618 57.2455 104.329C57.8263 105.025 58.1293 105.916 58.1544 107.002L57.7503 106.945C57.9976 106.22 58.33 105.637 58.7476 105.195C59.1675 104.737 59.6577 104.41 60.2184 104.214C60.795 104.02 61.416 103.97 62.0815 104.064C62.9529 104.186 63.6788 104.482 64.2591 104.951C64.8417 105.405 65.2492 106.011 65.4817 106.771C65.7301 107.533 65.7808 108.437 65.6338 109.483L64.4882 117.635L61.4461 117.207L62.4815 109.839C62.6285 108.794 62.5565 107.984 62.2656 107.41C61.9905 106.838 61.4885 106.501 60.7597 106.398C60.2685 106.329 59.8308 106.397 59.4466 106.602C59.0624 106.806 58.7407 107.141 58.4816 107.605C58.2405 108.056 58.0721 108.622 57.9763 109.303L56.9542 116.576L54.126 116.178L55.1481 108.906C55.2951 107.86 55.2491 107.038 55.0101 106.439C54.7712 105.839 54.2635 105.485 53.4871 105.376C52.996 105.307 52.5583 105.375 52.1741 105.579C51.8057 105.786 51.484 106.121 51.209 106.583C50.9521 107.032 50.7758 107.596 50.68 108.278L49.6579 115.55L46.6158 115.123ZM72.2413 119.015C70.9737 118.837 69.9104 118.413 69.0513 117.743C68.1944 117.057 67.5826 116.179 67.2159 115.11C66.8491 114.04 66.7593 112.84 66.9464 111.509C67.1334 110.178 67.5495 109.057 68.1945 108.146C68.8418 107.219 69.664 106.543 70.6609 106.118C71.6736 105.694 72.7979 105.57 74.0338 105.743C75.2379 105.913 76.2537 106.33 77.0811 106.996C77.9244 107.663 78.5204 108.539 78.869 109.622C79.2177 110.705 79.2918 111.96 79.0914 113.386L78.9945 114.075L69.987 112.809C69.8945 113.927 70.0776 114.809 70.5361 115.455C71.0127 116.088 71.7026 116.467 72.6057 116.594C73.287 116.69 73.8706 116.618 74.3566 116.38C74.8606 116.127 75.2387 115.736 75.491 115.206L78.5776 115.834C78.0554 117.021 77.2292 117.898 76.0991 118.467C74.9849 119.037 73.6989 119.22 72.2413 119.015ZM70.2743 110.765L76.1446 111.59C76.226 110.551 76.0397 109.75 75.5859 109.185C75.1343 108.604 74.5045 108.257 73.6964 108.144C72.8883 108.03 72.1782 108.197 71.566 108.644C70.9697 109.094 70.5391 109.8 70.2743 110.765ZM79.8879 119.799L81.6715 107.108L84.4284 107.495L84.0463 111.077L83.7098 110.884C83.9613 110.015 84.3229 109.338 84.7947 108.855C85.2665 108.372 85.8054 108.044 86.4115 107.871C87.0175 107.697 87.6612 107.659 88.3425 107.754C89.2773 107.886 90.0326 108.202 90.6085 108.703C91.2002 109.206 91.6112 109.846 91.8415 110.621C92.074 111.381 92.1235 112.236 91.9899 113.187L90.8442 121.339L87.8021 120.911L88.8108 113.734C88.9111 113.021 88.9244 112.409 88.8508 111.897C88.7772 111.386 88.5919 110.98 88.2948 110.68C88.0158 110.366 87.6069 110.171 87.0682 110.096C86.2601 109.982 85.5704 110.176 84.9991 110.677C84.4436 111.181 84.0901 111.972 83.9387 113.049L82.93 120.226L79.8879 119.799ZM97.6527 122.296C96.3852 122.117 95.4916 121.693 94.9719 121.022C94.468 120.353 94.3041 119.393 94.48 118.142L96.1701 106.116L99.2122 106.543L97.5622 118.284C97.4798 118.87 97.5486 119.3 97.7688 119.573C97.9911 119.831 98.3716 119.997 98.9103 120.073L100.693 120.323L100.362 122.676L97.6527 122.296ZM93.4255 111.159L93.7562 108.806L102.146 109.985L101.815 112.338L93.4255 111.159ZM105.454 123.683C104.123 123.496 103.096 123.044 102.373 122.329C101.652 121.597 101.368 120.685 101.521 119.592C101.675 118.498 102.136 117.691 102.904 117.168C103.672 116.646 104.772 116.349 106.205 116.275L110.528 116.035C110.655 115.131 110.544 114.429 110.194 113.928C109.847 113.41 109.269 113.095 108.461 112.981C107.732 112.879 107.129 112.972 106.653 113.26C106.194 113.535 105.841 113.978 105.593 114.59L102.524 114.013C102.966 112.702 103.729 111.759 104.812 111.184C105.896 110.593 107.223 110.408 108.792 110.628C110.598 110.882 111.896 111.533 112.686 112.581C113.494 113.616 113.778 114.981 113.54 116.676L112.892 121.287C112.845 121.619 112.869 121.857 112.962 121.999C113.071 122.144 113.244 122.233 113.482 122.266L113.886 122.323L113.575 124.533C113.475 124.552 113.314 124.553 113.09 124.538C112.881 124.525 112.666 124.503 112.445 124.471C111.922 124.398 111.465 124.253 111.076 124.037C110.688 123.804 110.413 123.467 110.249 123.024C110.087 122.565 110.057 121.971 110.16 121.242L110.394 121.469C110.19 122.006 109.842 122.466 109.352 122.849C108.88 123.219 108.311 123.478 107.643 123.627C106.976 123.776 106.247 123.794 105.454 123.683ZM106.383 121.559C107.064 121.655 107.669 121.603 108.198 121.403C108.727 121.202 109.16 120.883 109.496 120.446C109.832 120.008 110.046 119.465 110.137 118.815L110.238 118.102L106.864 118.307C106.163 118.354 105.642 118.498 105.301 118.741C104.977 118.971 104.785 119.307 104.722 119.751C104.653 120.242 104.758 120.644 105.037 120.958C105.332 121.274 105.781 121.475 106.383 121.559ZM117.694 125.112C116.775 124.983 116.072 124.642 115.584 124.089C115.096 123.535 114.926 122.736 115.073 121.69L117.023 107.81L120.065 108.238L118.158 121.809C118.114 122.126 118.16 122.374 118.296 122.555C118.448 122.738 118.674 122.851 118.975 122.893L119.902 123.023L119.572 125.376L117.694 125.112ZM125.898 126.265L128.27 109.391L131.312 109.819L130.316 116.901L129.936 116.848C130.165 116.136 130.502 115.578 130.947 115.172C131.394 114.75 131.911 114.467 132.496 114.323C133.084 114.164 133.711 114.13 134.377 114.224C135.311 114.355 136.067 114.672 136.643 115.173C137.237 115.66 137.641 116.29 137.855 117.064C138.085 117.839 138.134 118.702 138 119.653L136.855 127.805L133.812 127.377L134.855 119.962C134.999 118.932 134.933 118.14 134.656 117.584C134.381 117.012 133.871 116.673 133.126 116.569C132.302 116.453 131.607 116.63 131.04 117.1C130.473 117.569 130.117 118.319 129.972 119.349L128.94 126.693L125.898 126.265ZM144.607 129.185C143.34 129.007 142.276 128.583 141.417 127.913C140.56 127.227 139.949 126.349 139.582 125.28C139.215 124.211 139.125 123.01 139.312 121.679C139.499 120.349 139.915 119.228 140.561 118.316C141.208 117.39 142.03 116.713 143.027 116.288C144.04 115.865 145.164 115.74 146.4 115.914C147.604 116.083 148.62 116.5 149.447 117.166C150.29 117.834 150.886 118.709 151.235 119.792C151.584 120.875 151.658 122.13 151.457 123.556L151.361 124.245L142.353 122.979C142.261 124.097 142.444 124.979 142.902 125.625C143.379 126.258 144.069 126.638 144.972 126.765C145.653 126.86 146.237 126.789 146.723 126.55C147.227 126.298 147.605 125.907 147.857 125.377L150.944 126.004C150.421 127.191 149.595 128.069 148.465 128.637C147.351 129.207 146.065 129.39 144.607 129.185ZM142.64 120.935L148.511 121.76C148.592 120.722 148.406 119.92 147.952 119.355C147.5 118.775 146.87 118.428 146.062 118.314C145.254 118.201 144.544 118.367 143.932 118.815C143.336 119.264 142.905 119.971 142.64 120.935ZM156.083 130.798C154.752 130.611 153.725 130.16 153.002 129.444C152.281 128.713 151.997 127.8 152.15 126.707C152.304 125.614 152.765 124.806 153.533 124.284C154.301 123.762 155.401 123.464 156.834 123.391L161.157 123.15C161.284 122.247 161.173 121.545 160.823 121.043C160.476 120.526 159.898 120.21 159.09 120.097C158.361 119.994 157.758 120.087 157.282 120.376C156.823 120.65 156.47 121.094 156.222 121.705L153.153 121.128C153.595 119.817 154.358 118.874 155.441 118.299C156.525 117.708 157.852 117.523 159.421 117.744C161.227 117.998 162.525 118.649 163.315 119.697C164.123 120.731 164.407 122.096 164.169 123.791L163.521 128.402C163.474 128.735 163.498 128.972 163.591 129.115C163.7 129.259 163.873 129.348 164.111 129.382L164.515 129.438L164.204 131.649C164.104 131.667 163.943 131.669 163.719 131.653C163.51 131.64 163.295 131.618 163.074 131.587C162.551 131.513 162.094 131.368 161.705 131.152C161.317 130.92 161.042 130.582 160.878 130.139C160.716 129.68 160.686 129.086 160.789 128.357L161.023 128.584C160.819 129.121 160.471 129.581 159.981 129.965C159.509 130.335 158.94 130.594 158.272 130.742C157.605 130.891 156.876 130.91 156.083 130.798ZM157.012 128.675C157.693 128.771 158.298 128.718 158.827 128.518C159.356 128.318 159.789 127.999 160.125 127.561C160.461 127.124 160.675 126.58 160.766 125.931L160.867 125.218L157.493 125.422C156.792 125.469 156.271 125.614 155.93 125.857C155.606 126.086 155.414 126.422 155.351 126.866C155.282 127.357 155.387 127.76 155.666 128.074C155.961 128.39 156.41 128.59 157.012 128.675ZM168.323 132.228C167.404 132.098 166.701 131.757 166.213 131.204C165.725 130.651 165.555 129.851 165.702 128.805L167.652 114.926L170.694 115.353L168.787 128.924C168.743 129.241 168.789 129.49 168.925 129.67C169.077 129.853 169.303 129.966 169.604 130.008L170.531 130.139L170.201 132.491L168.323 132.228ZM176.013 133.308C174.746 133.13 173.852 132.706 173.332 132.035C172.829 131.366 172.665 130.406 172.841 129.154L174.531 117.129L177.573 117.556L175.923 129.297C175.84 129.883 175.909 130.313 176.129 130.586C176.352 130.844 176.732 131.01 177.271 131.086L179.053 131.336L178.723 133.689L176.013 133.308ZM171.786 122.172L172.117 119.819L180.506 120.998L180.176 123.351L171.786 122.172ZM180.241 133.903L182.612 117.028L185.654 117.456L184.659 124.538L184.279 124.485C184.508 123.774 184.845 123.215 185.29 122.809C185.737 122.387 186.253 122.104 186.839 121.961C187.427 121.801 188.054 121.768 188.719 121.861C189.654 121.993 190.409 122.309 190.985 122.81C191.579 123.297 191.983 123.928 192.198 124.701C192.428 125.477 192.476 126.34 192.343 127.29L191.197 135.442L188.155 135.015L189.197 127.6C189.342 126.57 189.276 125.777 188.998 125.221C188.723 124.649 188.213 124.311 187.469 124.206C186.645 124.09 185.949 124.267 185.382 124.737C184.815 125.207 184.46 125.956 184.315 126.986L183.283 134.33L180.241 133.903Z" fill="#F2F2F2"/>
<g clip-path="url(#clip1_173_39)">
<path d="M58.0411 31.5312C57.5817 31.4666 57.2892 31.1789 57.1638 30.6681C57.0504 30.1591 57.0685 29.3725 57.218 28.3086C57.4389 26.7369 57.8724 25.2752 58.5185 23.9236C58.6766 23.5883 58.8876 23.359 59.1515 23.2358C59.4291 23.1022 59.7916 23.0669 60.239 23.1298C60.4808 23.1637 60.6458 23.2178 60.734 23.2918C60.8222 23.3659 60.8545 23.4875 60.8307 23.6568C60.8035 23.8502 60.6516 24.2727 60.3751 24.9242C60.1863 25.3908 60.0301 25.8004 59.9066 26.1529C59.7847 26.4934 59.6623 26.9261 59.5392 27.4513C59.9981 26.5541 60.4972 25.8106 61.0362 25.2206C61.5874 24.6323 62.1208 24.2141 62.6365 23.966C63.166 23.7076 63.6423 23.6081 64.0655 23.6675C64.4886 23.727 64.7712 23.8654 64.9133 24.0826C65.0675 24.3015 65.1165 24.6105 65.0604 25.0094C65.0061 25.3963 64.7927 26.0814 64.4202 27.0647C64.2623 27.4863 64.15 27.8034 64.0831 28.0159C64.8966 26.6138 65.7197 25.6261 66.5523 25.0527C67.385 24.4793 68.1217 24.2376 68.7624 24.3277C69.5483 24.4381 69.886 24.8862 69.7756 25.6721C69.7093 26.1436 69.4565 26.9773 69.0172 28.1731C68.6397 29.1926 68.4271 29.8717 68.3795 30.2102C68.3116 30.6938 68.4529 30.9602 68.8035 31.0095C69.0453 31.0435 69.3498 30.9383 69.717 30.694C70.098 30.4394 70.6133 30.0186 71.2629 29.4318C71.4318 29.2829 71.6069 29.2213 71.7882 29.2468C71.9454 29.2688 72.0561 29.3584 72.1204 29.5154C72.1967 29.674 72.217 29.8803 72.1813 30.1342C72.1134 30.6178 71.9458 30.9765 71.6787 31.2101C71.0688 31.7779 70.4327 32.2248 69.7705 32.5509C69.1203 32.8787 68.4143 32.989 67.6527 32.882C67.0361 32.7953 66.5953 32.5546 66.3302 32.1598C66.0668 31.753 65.9827 31.211 66.0779 30.534C66.1254 30.1954 66.295 29.6028 66.5866 28.7561C66.8508 28.0165 67.0033 27.5017 67.0441 27.2115C67.0713 27.0181 67.0184 26.912 66.8854 26.8933C66.7283 26.8712 66.4757 27.0453 66.1278 27.4156C65.7815 27.7738 65.4166 28.265 65.033 28.8892C64.6494 29.5133 64.3151 30.1814 64.0301 30.8934C63.8155 31.455 63.604 31.8199 63.3955 31.9878C63.199 32.1574 62.9074 32.2151 62.5205 32.1607C62.1215 32.1046 61.8456 31.8748 61.6927 31.4711C61.5537 31.057 61.5223 30.578 61.5988 30.0339C61.6634 29.5745 61.8173 28.918 62.0605 28.0645C62.266 27.3044 62.3857 26.8034 62.4197 26.5616C62.4469 26.3682 62.394 26.2621 62.261 26.2434C62.0796 26.2179 61.8193 26.4032 61.4801 26.7994C61.1409 27.1956 60.7907 27.7135 60.4295 28.3531C60.0805 28.9945 59.7815 29.6306 59.5326 30.2613C59.3197 30.8109 59.1082 31.1757 58.898 31.3557C58.7015 31.5253 58.4159 31.5839 58.0411 31.5312ZM76.7014 30.4921C76.8586 30.5142 76.9693 30.6037 77.0336 30.7607C77.1099 30.9193 77.1302 31.1256 77.0945 31.3795C77.0334 31.8147 76.8779 32.1751 76.6282 32.4605C76.2167 32.9328 75.7124 33.275 75.1155 33.487C74.5306 33.7007 73.8574 33.754 73.0957 33.647C71.9351 33.4838 71.0828 33.0127 70.5389 32.2335C69.9967 31.4423 69.8088 30.4542 69.9753 29.2694C70.0926 28.4352 70.3766 27.6861 70.8275 27.022C71.28 26.3459 71.8443 25.8396 72.5204 25.5031C73.2086 25.1683 73.9456 25.0561 74.7314 25.1665C75.4326 25.2651 75.9651 25.5557 76.3287 26.0383C76.6941 26.5088 76.8267 27.1007 76.7264 27.8141C76.6092 28.6483 76.2059 29.3251 75.5164 29.8447C74.8407 30.3538 73.7589 30.6826 72.2709 30.831C72.4829 31.4279 72.9335 31.7748 73.6226 31.8717C74.1183 31.9414 74.5395 31.8834 74.8861 31.6979C75.2448 31.5141 75.674 31.1799 76.1736 30.6953C76.3441 30.5343 76.5201 30.4666 76.7014 30.4921ZM74.1733 26.9004C73.726 26.8376 73.3086 27.044 72.9212 27.5197C72.5459 27.9971 72.3064 28.6045 72.2028 29.342L72.1977 29.3783C72.9348 29.3093 73.5327 29.1344 73.9913 28.8536C74.45 28.5729 74.7107 28.2088 74.7735 27.7615C74.8058 27.5318 74.7648 27.3411 74.6505 27.1894C74.55 27.0274 74.3909 26.931 74.1733 26.9004Z" fill="#61F453"/>
<path d="M77.1003 34.1172L78.9098 21.2413L83.3529 21.8657C85.4445 22.1597 86.9735 22.9479 87.9398 24.2303C88.9079 25.5006 89.2466 27.1694 88.9561 29.2368C88.6672 31.2921 87.8885 32.7977 86.6199 33.7537C85.3634 34.7114 83.7075 35.0458 81.6522 34.7569L77.1003 34.1172ZM80.183 32.1833L81.8696 32.4203C83.1148 32.5953 84.0804 32.392 84.7663 31.8103C85.466 31.2182 85.9143 30.221 86.1114 28.8185C86.3085 27.4161 86.1516 26.3399 85.6405 25.59C85.1432 24.8297 84.2719 24.362 83.0267 24.187L81.3401 23.95L80.183 32.1833ZM89.18 35.8149L90.5461 26.0945L93.2664 26.4768L91.9003 36.1972L89.18 35.8149ZM90.6599 24.8899L90.9658 22.7137L93.7767 23.1088L93.4709 25.285L90.6599 24.8899ZM96.4123 37.0532C95.4088 36.9122 94.6189 36.5669 94.0427 36.0175C93.4803 35.4576 93.2577 34.7606 93.375 33.9263C93.4956 33.0679 93.8542 32.4464 94.4507 32.0618C95.0611 31.6667 95.9074 31.4343 96.9898 31.3645L100.214 31.1888C100.302 30.5602 100.223 30.0683 99.9774 29.7131C99.7452 29.3476 99.3631 29.1275 98.8312 29.0527C98.3113 28.9797 97.8893 29.0436 97.5652 29.2447C97.2427 29.4336 97.0069 29.7518 96.8577 30.1994L94.1371 29.6876C94.468 28.6491 95.0585 27.9122 95.9088 27.4769C96.7728 27.0312 97.8395 26.8976 99.109 27.076C100.56 27.2799 101.599 27.7774 102.228 28.5685C102.869 29.3613 103.096 30.4226 102.909 31.7525L102.442 35.0712C102.403 35.3493 102.419 35.5426 102.49 35.6512C102.575 35.7494 102.708 35.8113 102.889 35.8368L103.161 35.875L102.899 37.7429C102.811 37.7552 102.668 37.7598 102.472 37.7569C102.287 37.7556 102.104 37.7422 101.922 37.7167C101.536 37.6623 101.182 37.5448 100.862 37.3643C100.555 37.1854 100.32 36.9244 100.159 36.5811C99.9991 36.2258 99.9609 35.7519 100.044 35.1595L100.254 35.374C100.072 35.7923 99.8012 36.1425 99.441 36.4248C99.0928 36.7087 98.6582 36.9065 98.137 37.0182C97.6279 37.1316 97.053 37.1433 96.4123 37.0532ZM97.3276 35.2771C97.775 35.3399 98.1798 35.3105 98.5421 35.1888C98.9061 35.0551 99.2086 34.8325 99.4496 34.5212C99.6906 34.2099 99.8434 33.8245 99.908 33.365L99.9743 32.8935L97.6955 33.0541C97.2484 33.0775 96.8955 33.1759 96.6369 33.3492C96.3921 33.512 96.2476 33.7506 96.2035 34.065C96.1576 34.3914 96.2307 34.6606 96.4228 34.8725C96.615 35.0844 96.9165 35.2193 97.3276 35.2771ZM103.783 37.8672L105.149 28.1468L107.724 28.5087L107.417 31.3505L107.225 31.2681C107.52 30.3109 107.898 29.6427 108.358 29.2635C108.818 28.8844 109.399 28.7441 110.1 28.8426L110.988 28.9675L110.672 31.2162L109.784 31.0913C109.276 31.02 108.85 31.0278 108.504 31.115C108.159 31.2021 107.882 31.3788 107.672 31.6452C107.474 31.9133 107.34 32.2951 107.27 32.7908L106.503 38.2495L103.783 37.8672ZM110.951 41.6486L111.236 39.6174L112.524 39.7984C112.839 39.8426 113.075 39.8265 113.234 39.7502C113.403 39.6877 113.546 39.5475 113.663 39.3296L113.941 38.7955L113.197 38.691L111.085 28.9811L113.86 29.3711L115.15 36.3764L118.176 29.9776L120.951 30.3676L115.719 40.4878C115.411 41.098 115.033 41.5133 114.582 41.7336C114.132 41.9539 113.539 42.0122 112.801 41.9085L110.951 41.6486Z" fill="#F2F2F2"/>
</g>
</g>
<defs>
<radialGradient id="paint0_radial_173_39" cx="0" cy="0" r="1" gradientUnits="userSpaceOnUse" gradientTransform="translate(308.161 320.429) rotate(-133.558) scale(323.285 266.683)">
<stop stop-color="#61F453" stop-opacity="0.25"/>
<stop offset="1" stop-color="#61F453" stop-opacity="0"/>
</radialGradient>
<clipPath id="clip0_173_39">
<rect width="263.973" height="320" fill="white" transform="translate(44.5352) rotate(8)"/>
</clipPath>
<clipPath id="clip1_173_39">
<rect width="63.4217" height="16" fill="white" transform="translate(58.6475 18.1406) rotate(8)"/>
</clipPath>
</defs>
</svg>
