<svg width="96" height="16" viewBox="0 0 96 16" fill="none" xmlns="http://www.w3.org/2000/svg">
<g opacity="0.25">
<g clip-path="url(#clip0_137_1577)">
<path d="M0.945311 7.46612L5.72705 5.72729L7.46587 0.945557C7.64721 0.44686 8.35251 0.446858 8.53385 0.945555L10.2727 5.72729L15.0544 7.46612C15.5531 7.64745 15.5531 8.35276 15.0544 8.53409L10.2727 10.2729L8.53385 15.0546C8.35251 15.5534 7.64721 15.5534 7.46587 15.0546L5.72705 10.2729L0.945313 8.53409C0.446616 8.35276 0.446614 7.64745 0.945311 7.46612Z" fill="#F2F2F2"/>
<path d="M0.945311 7.46612L5.72705 5.72729L7.46587 0.945557C7.64721 0.44686 8.35251 0.446858 8.53385 0.945555L10.2727 5.72729L15.0544 7.46612C15.5531 7.64745 15.5531 8.35276 15.0544 8.53409L10.2727 10.2729L8.53385 15.0546C8.35251 15.5534 7.64721 15.5534 7.46587 15.0546L5.72705 10.2729L0.945313 8.53409C0.446616 8.35276 0.446614 7.64745 0.945311 7.46612Z" stroke="#F2F2F2" stroke-width="1.14286" stroke-linecap="round" stroke-linejoin="round"/>
</g>
<g clip-path="url(#clip1_137_1577)">
<path d="M20.9453 7.46612L25.727 5.72729L27.4659 0.945557C27.6472 0.44686 28.3525 0.446858 28.5338 0.945555L30.2727 5.72729L35.0544 7.46612C35.5531 7.64745 35.5531 8.35276 35.0544 8.53409L30.2727 10.2729L28.5338 15.0546C28.3525 15.5534 27.6472 15.5534 27.4659 15.0546L25.727 10.2729L20.9453 8.53409C20.4466 8.35276 20.4466 7.64745 20.9453 7.46612Z" fill="#F2F2F2"/>
<path d="M20.9453 7.46612L25.727 5.72729L27.4659 0.945557C27.6472 0.44686 28.3525 0.446858 28.5338 0.945555L30.2727 5.72729L35.0544 7.46612C35.5531 7.64745 35.5531 8.35276 35.0544 8.53409L30.2727 10.2729L28.5338 15.0546C28.3525 15.5534 27.6472 15.5534 27.4659 15.0546L25.727 10.2729L20.9453 8.53409C20.4466 8.35276 20.4466 7.64745 20.9453 7.46612Z" stroke="#F2F2F2" stroke-width="1.14286" stroke-linecap="round" stroke-linejoin="round"/>
</g>
<g clip-path="url(#clip2_137_1577)">
<path d="M40.9453 7.46612L45.727 5.72729L47.4659 0.945557C47.6472 0.44686 48.3525 0.446858 48.5338 0.945555L50.2727 5.72729L55.0544 7.46612C55.5531 7.64745 55.5531 8.35276 55.0544 8.53409L50.2727 10.2729L48.5338 15.0546C48.3525 15.5534 47.6472 15.5534 47.4659 15.0546L45.727 10.2729L40.9453 8.53409C40.4466 8.35276 40.4466 7.64745 40.9453 7.46612Z" fill="#F2F2F2"/>
<path d="M40.9453 7.46612L45.727 5.72729L47.4659 0.945557C47.6472 0.44686 48.3525 0.446858 48.5338 0.945555L50.2727 5.72729L55.0544 7.46612C55.5531 7.64745 55.5531 8.35276 55.0544 8.53409L50.2727 10.2729L48.5338 15.0546C48.3525 15.5534 47.6472 15.5534 47.4659 15.0546L45.727 10.2729L40.9453 8.53409C40.4466 8.35276 40.4466 7.64745 40.9453 7.46612Z" stroke="#F2F2F2" stroke-width="1.14286" stroke-linecap="round" stroke-linejoin="round"/>
</g>
<g clip-path="url(#clip3_137_1577)">
<path d="M60.9453 7.46612L65.727 5.72729L67.4659 0.945557C67.6472 0.44686 68.3525 0.446858 68.5338 0.945555L70.2727 5.72729L75.0544 7.46612C75.5531 7.64745 75.5531 8.35276 75.0544 8.53409L70.2727 10.2729L68.5338 15.0546C68.3525 15.5534 67.6472 15.5534 67.4659 15.0546L65.727 10.2729L60.9453 8.53409C60.4466 8.35276 60.4466 7.64745 60.9453 7.46612Z" fill="#F2F2F2"/>
<path d="M60.9453 7.46612L65.727 5.72729L67.4659 0.945557C67.6472 0.44686 68.3525 0.446858 68.5338 0.945555L70.2727 5.72729L75.0544 7.46612C75.5531 7.64745 75.5531 8.35276 75.0544 8.53409L70.2727 10.2729L68.5338 15.0546C68.3525 15.5534 67.6472 15.5534 67.4659 15.0546L65.727 10.2729L60.9453 8.53409C60.4466 8.35276 60.4466 7.64745 60.9453 7.46612Z" stroke="#F2F2F2" stroke-width="1.14286" stroke-linecap="round" stroke-linejoin="round"/>
</g>
<g clip-path="url(#clip4_137_1577)">
<path d="M80.9453 7.46612L85.727 5.72729L87.4659 0.945557C87.6472 0.44686 88.3525 0.446858 88.5338 0.945555L90.2727 5.72729L95.0544 7.46612C95.5531 7.64745 95.5531 8.35276 95.0544 8.53409L90.2727 10.2729L88.5338 15.0546C88.3525 15.5534 87.6472 15.5534 87.4659 15.0546L85.727 10.2729L80.9453 8.53409C80.4466 8.35276 80.4466 7.64745 80.9453 7.46612Z" fill="#F2F2F2"/>
<path d="M80.9453 7.46612L85.727 5.72729L87.4659 0.945557C87.6472 0.44686 88.3525 0.446858 88.5338 0.945555L90.2727 5.72729L95.0544 7.46612C95.5531 7.64745 95.5531 8.35276 95.0544 8.53409L90.2727 10.2729L88.5338 15.0546C88.3525 15.5534 87.6472 15.5534 87.4659 15.0546L85.727 10.2729L80.9453 8.53409C80.4466 8.35276 80.4466 7.64745 80.9453 7.46612Z" stroke="#F2F2F2" stroke-width="1.14286" stroke-linecap="round" stroke-linejoin="round"/>
</g>
</g>
<defs>
<clipPath id="clip0_137_1577">
<rect width="16" height="16" fill="white"/>
</clipPath>
<clipPath id="clip1_137_1577">
<rect width="16" height="16" fill="white" transform="translate(20)"/>
</clipPath>
<clipPath id="clip2_137_1577">
<rect width="16" height="16" fill="white" transform="translate(40)"/>
</clipPath>
<clipPath id="clip3_137_1577">
<rect width="16" height="16" fill="white" transform="translate(60)"/>
</clipPath>
<clipPath id="clip4_137_1577">
<rect width="16" height="16" fill="white" transform="translate(80)"/>
</clipPath>
</defs>
</svg>
